<svg xmlns="http://www.w3.org/2000/svg" version="1.1" xmlns:xlink="http://www.w3.org/1999/xlink" xmlns:svgjs="http://svgjs.dev/svgjs" viewBox="0 0 800 800"><defs><linearGradient x1="50%" y1="0%" x2="50%" y2="100%" id="ccchaos-grad"><stop stop-color="hsl(206, 75%, 49%)" stop-opacity="1" offset="0%"></stop><stop stop-color="hsl(331, 90%, 56%)" stop-opacity="1" offset="100%"></stop></linearGradient></defs><g stroke-width="2" stroke="url(#ccchaos-grad)" fill="none" stroke-linecap="round"><path d="M404.72 114.94C414.7 110.57 424.9 107.06 435.3 104.73 445.73 103.34 456.37 103.59 467.18 105.5 478.01 108.62 489.01 113.25 500.09 119.13 511.13 125.66 522.19 132.9 533.13 140.51 543.89 147.9 554.37 155.14 564.39 162.03 573.99 168.09 582.89 173.6 590.9 178.56 601.28 184.43 614.59 193.82 617.24 198.27 617.69 202.9 614.3 215.32 612.41 223.49 612.36 229.56 613.31 236.36 615.64 243.81 619.98 251.63 626.1 260.02 634.03 268.86 643.88 277.98 655.08 287.44 667.15 297.13 679.71 306.99 691.85 316.99 702.75 327.03 712.01 337.15 718.67 347.25 722.15 357.25 722.65 367.28 719.61 377.16 713.21 386.84 704.54 396.52 693.93 405.74 682.32 414.5 670.92 423.25 660.22 431.55 650.92 439.41 643.83 447.3 638.93 454.82 636.26 462.02 636.13 469.36 637.79 476.51 640.77 483.57 645.11 490.97 649.67 498.49 653.86 506.26 657.8 514.61 660.43 523.43 661.43 532.83 661.12 542.98 658.83 553.83 654.59 565.36 648.87 577.53 641.42 590.21 632.5 603.2 622.55 616.24 611.61 629.05 599.98 641.21 587.93 652.44 575.63 662.27 563.3 670.24 551.02 676.37 538.94 680.14 527.17 681.38 515.66 680.67 504.51 677.71 493.72 672.85 483.21 667.26 472.99 660.96 463.04 654.71 453.28 649.84 443.68 646.45 434.21 645.15 424.82 646.8 415.48 651.05 406.15 657.78 396.85 666.92 387.52 677.43 378.16 688.36 368.8 699.08 359.63 707.94 350.68 714.15 341.74 717.69 333.03 717.67 324.6 714.14 316.2 707.77 308.11 698.62 300.37 687.42 292.69 675.17 285.38 662.37 278.47 649.82 271.59 638.3 265.11 628.11 259.02 619.58 252.89 613.11 247.1 608.42 241.61 605.32 233.23 603.81 216.75 605.09 208.31 605.58 202.24 605.47 196.07 604.3 189.8 601.92 183.09 598.81 176.33 594.38 169.56 588.72 162.54 582.29 155.68 574.77 149.11 566.35 142.61 557.37 136.63 547.73 131.3 537.62 126.37 527.2 122.27 516.51 119.1 505.7 116.47 494.78 114.77 483.85 114.01 473.02 113.64 462.18 114.02 451.48 115.05 440.99 116.09 430.5 117.48 420.23 119.12 410.21 120.32 400.19 121.52 390.62 122.65 381.51 123.2 372.37 123.73 363.64 124.27 355.29 124.44 346.87 124.84 338.76 125.59 330.93 126.35 322.94 127.71 315.13 129.76 307.44 132.18 299.48 135.44 291.52 139.57 283.5 144.21 275.1 149.71 266.54 155.99 257.76 162.69 248.56 170.04 239.13 177.91 229.5 185.97 219.56 194.36 209.54 202.99 199.55 211.54 189.59 220.18 179.95 228.83 170.83 237.24 162.2 245.62 154.42 253.95 147.71 261.96 141.89 269.96 137.32 277.94 134.09 285.66 131.74 293.43 130.6 301.31 130.53 308.98 130.81 316.84 131.67 324.91 132.83 332.84 133.47 341.06 133.83 349.58 133.66 358.03 132.32 366.84 130.22 376.02 127.38 385.16 123.48 394.72 119.23 404.7 114.95" stroke-dasharray="0 8" transform="rotate(0, 400, 400)" opacity="0.92"></path><path d="M411.46 125.97C421.22 121.64 431.14 118.13 441.2 115.71 451.28 114.18 461.5 114.17 471.81 115.75 482.12 118.48 492.48 122.69 502.81 128.15 513.06 134.33 523.18 141.28 533.05 148.72 542.69 156.08 551.91 163.43 560.57 170.54 568.77 176.98 576.2 182.94 582.7 188.4 590.93 195.07 600.67 205.65 602.21 210.31 602.25 214.75 600.03 225.74 599.57 232.76 600.66 237.9 602.83 243.71 606.36 250.14 611.75 256.87 618.73 264.17 627.26 271.96 637.37 280 648.52 288.44 660.24 297.18 672.17 306.08 683.5 315.2 693.5 324.44 701.89 333.76 707.79 343.14 710.72 352.51 710.92 361.9 707.9 371.23 701.79 380.44 693.61 389.66 683.62 398.52 672.64 407.04 661.77 415.55 651.39 423.74 642.16 431.63 634.85 439.57 629.44 447.29 626.03 454.84 624.96 462.57 625.6 470.26 627.59 478.02 631.02 486.11 634.89 494.44 638.68 503.11 642.53 512.3 645.43 521.97 647.04 532.19 647.68 542.97 646.62 554.31 643.82 566.14 639.71 578.32 633.95 590.74 626.71 603.15 618.42 615.32 609.01 626.95 598.75 637.66 587.93 647.29 576.63 655.37 565.1 661.57 553.43 666.02 541.78 668.26 530.27 668.24 518.88 666.6 507.73 663.1 496.88 658.09 486.21 652.71 475.83 646.95 465.71 641.47 455.76 637.47 446.01 634.97 436.46 634.46 426.99 636.67 417.65 641.23 408.42 647.98 399.22 656.87 390.08 666.94 381.02 677.34 371.96 687.53 363.17 696.05 354.66 702.15 346.16 705.88 337.94 706.36 330.05 703.61 322.16 698.2 314.61 690.11 307.41 679.94 300.22 668.57 293.39 656.42 286.93 644.18 280.45 632.62 274.31 622.02 268.49 612.75 262.58 605.24 256.93 599.31 251.49 594.9 243.08 591.39 226.14 589.9 217.34 589.94 211.03 589.97 204.63 589.25 198.14 587.63 191.28 585.53 184.4 582.33 177.56 578.02 170.57 573.09 163.79 567.1 157.35 560.19 151.06 552.76 145.32 544.57 140.27 535.8 135.64 526.69 131.86 517.18 128.98 507.4 126.64 497.46 125.21 487.38 124.67 477.27 124.51 467.11 125.06 456.99 126.22 446.96 127.37 436.94 128.85 427.04 130.54 417.3 131.81 407.56 133.04 398.2 134.2 389.2 134.77 380.18 135.3 371.48 135.81 363.07 135.92 354.58 136.22 346.32 136.81 338.25 137.36 330.01 138.46 321.86 140.18 313.76 142.21 305.4 145.05 296.98 148.69 288.46 152.83 279.62 157.81 270.61 163.57 261.42 169.78 251.92 176.67 242.26 184.12 232.5 191.84 222.59 199.96 212.74 208.37 203.07 216.81 193.59 225.41 184.55 234.08 176.17 242.6 168.37 251.13 161.5 259.63 155.72 267.89 150.79 276.12 147.08 284.33 144.6 292.31 142.88 300.31 142.22 308.37 142.47 316.23 142.93 324.22 143.82 332.38 144.88 340.39 145.36 348.64 145.49 357.13 145.09 365.55 143.56 374.27 141.3 383.31 138.36 392.33 134.45 401.7 130.21 411.45 125.97" stroke-dasharray="9 9" transform="rotate(4.04, 400, 400)" opacity="0.33"></path><path d="M417.02 137C426.51 132.72 436.08 129.21 445.73 126.73 455.37 125.05 465.06 124.81 474.76 126.06 484.42 128.41 494.02 132.18 503.47 137.21 512.81 142.98 521.9 149.6 530.63 156.79 539.1 164.04 547.05 171.39 554.36 178.65 561.24 185.37 567.32 191.72 572.48 197.63 578.91 205.11 586.03 217.11 586.97 222.19 587.07 226.75 586.66 237 587.77 243.2 589.99 247.63 593.31 252.63 597.92 258.2 604.19 263.98 611.86 270.32 620.8 277.14 631.02 284.17 641.98 291.63 653.23 299.44 664.48 307.4 674.98 315.64 684.1 324.08 691.63 332.59 696.81 341.25 699.24 349.99 699.18 358.75 696.18 367.54 690.36 376.33 682.67 385.12 673.28 393.69 662.93 402.03 652.58 410.39 642.57 418.55 633.48 426.55 626.02 434.63 620.2 442.61 616.15 450.57 614.22 458.72 613.9 466.95 614.92 475.35 617.41 484.07 620.5 493.08 623.74 502.46 627.29 512.26 630.22 522.5 632.19 533.19 633.49 544.26 633.39 555.7 631.78 567.4 629.08 579.2 624.85 590.97 619.19 602.46 612.54 613.46 604.71 623.7 595.92 632.82 586.49 640.78 576.42 647.15 565.93 651.66 555.16 654.59 544.23 655.52 533.28 654.47 522.31 652.15 511.46 648.32 500.8 643.36 490.25 638.33 479.91 633.19 469.82 628.52 459.85 625.38 450.09 623.73 440.55 623.94 431.09 626.65 421.8 631.45 412.69 638.19 403.6 646.82 394.65 656.43 385.85 666.31 377.04 676 368.57 684.16 360.43 690.14 352.29 694.02 344.47 694.94 336.99 692.9 329.5 688.4 322.35 681.33 315.55 672.2 308.72 661.77 302.22 650.37 296.05 638.62 289.81 627.21 283.85 616.43 278.16 606.65 272.32 598.3 266.66 591.32 261.16 585.72 255.4 581.7 249.71 578.82 244.03 576.8 238 575.86 231.93 575.26 225.78 574.71 219.25 574.49 212.64 573.85 205.97 572.58 199.01 571.1 192.07 568.73 185.24 565.45 178.33 561.7 171.69 557.01 165.45 551.42 159.42 545.39 153.98 538.58 149.24 531.11 144.95 523.32 141.49 515.02 138.93 506.33 136.89 497.46 135.73 488.33 135.42 479.03 135.45 469.66 136.15 460.21 137.42 450.74 138.67 441.26 140.22 431.79 141.97 422.37 143.28 412.95 144.56 403.8 145.74 394.91 146.35 385.99 146.88 377.3 147.37 368.8 147.45 360.23 147.67 351.79 148.14 343.45 148.52 334.96 149.37 326.5 150.79 318.01 152.46 309.31 154.88 300.52 158.05 291.62 161.68 282.47 166.12 273.18 171.32 263.77 176.99 254.17 183.35 244.5 190.31 234.85 197.59 225.2 205.33 215.73 213.42 206.59 221.63 197.76 230.06 189.49 238.64 181.97 247.14 175.08 255.71 169.15 264.29 164.3 272.7 160.25 281.1 157.33 289.49 155.53 297.68 154.37 305.88 154.1 314.11 154.58 322.17 155.14 330.32 155.99 338.57 156.92 346.7 157.2 354.99 157.1 363.48 156.47 371.89 154.74 380.55 152.34 389.46 149.32 398.35 145.4 407.53 141.19 417.01 137" stroke-dasharray="3 9" transform="rotate(8.08, 400, 400)" opacity="0.90"></path><path d="M420.82 148.02C429.98 143.81 439.15 140.32 448.3 137.78 457.44 135.98 466.53 135.51 475.51 136.44 484.45 138.41 493.21 141.75 501.73 146.32 510.11 151.65 518.15 157.88 525.73 164.76 533.06 171.8 539.82 179.08 545.89 186.38 551.59 193.29 556.52 199.94 560.58 206.24 565.63 214.46 571.07 228 571.89 233.68 572.46 238.62 574.34 248.77 577.06 254.5 580.36 258.45 584.71 262.88 590.25 267.79 597.25 272.82 605.41 278.35 614.6 284.36 624.77 290.51 635.41 297.1 646.11 304.07 656.63 311.16 666.28 318.57 674.53 326.26 681.25 334.01 685.76 341.98 687.72 350.13 687.43 358.28 684.46 366.58 678.94 374.99 671.71 383.39 662.91 391.71 653.17 399.92 643.36 408.16 633.74 416.33 624.84 424.47 617.32 432.69 611.18 440.94 606.59 449.28 603.9 457.78 602.7 466.47 602.78 475.37 604.32 484.55 606.57 494.03 609.15 503.86 612.24 513.98 614.98 524.45 617.06 535.23 618.76 546.21 619.33 557.37 618.65 568.56 617.12 579.63 614.21 590.43 609.99 600.71 604.86 610.35 598.57 619.05 591.27 626.53 583.3 632.84 574.58 637.58 565.3 640.56 555.65 642.17 545.68 642.02 535.53 640.18 525.27 637.41 514.98 633.46 504.77 628.72 494.57 624.16 484.52 619.71 474.65 615.87 464.85 613.58 455.24 612.71 445.84 613.59 436.5 616.73 427.35 621.73 418.39 628.42 409.47 636.75 400.72 645.92 392.15 655.28 383.58 664.47 375.37 672.27 367.53 678.12 359.67 682.1 352.15 683.41 344.98 682.01 337.78 678.37 330.91 672.29 324.36 664.18 317.75 654.74 311.44 644.17 305.41 633.04 299.27 621.96 293.37 611.21 287.66 601.15 281.77 592.2 276.01 584.38 270.34 577.75 264.41 572.54 258.49 568.43 252.55 565.24 246.29 563.16 239.96 561.6 233.57 560.31 226.85 559.54 220.08 558.62 213.3 557.33 206.29 556.07 199.37 554.16 192.62 551.53 185.87 548.63 179.44 544.91 173.46 540.39 167.74 535.53 162.63 529.91 158.24 523.61 154.32 517.04 151.21 509.89 148.98 502.27 147.24 494.48 146.33 486.31 146.24 477.87 146.45 469.35 147.29 460.62 148.67 451.75 150 442.87 151.61 433.88 153.39 424.82 154.75 415.76 156.06 406.85 157.27 398.08 157.92 389.3 158.47 380.64 158.97 372.07 159.03 363.45 159.21 354.87 159.57 346.32 159.81 337.65 160.46 328.95 161.61 320.19 162.95 311.27 164.96 302.25 167.67 293.14 170.79 283.87 174.69 274.51 179.32 265.1 184.41 255.62 190.19 246.18 196.59 236.87 203.35 227.69 210.61 218.82 218.28 210.38 226.14 202.34 234.28 194.96 242.62 188.37 250.99 182.43 259.46 177.45 268 173.5 276.45 170.28 284.91 168.08 293.38 166.88 301.71 166.16 310.04 166.2 318.39 166.84 326.6 167.42 334.86 168.18 343.18 168.93 351.41 168.99 359.74 168.65 368.2 167.78 376.61 165.87 385.18 163.34 393.94 160.25 402.68 156.32 411.64 152.16 420.8 148.03" stroke-dasharray="1 1" transform="rotate(12.12, 400, 400)" opacity="0.97"></path><path d="M422.45 159.05C431.25 154.91 439.96 151.45 448.56 148.87 457.14 146.95 465.57 146.27 473.81 146.9 481.98 148.49 489.9 151.4 497.48 155.5 504.92 160.37 511.94 166.16 518.46 172.66 524.75 179.43 530.45 186.53 535.47 193.77 540.2 200.77 544.21 207.62 547.46 214.21 551.56 223.08 556.24 238.13 557.37 244.53 558.71 250.03 563.18 260.66 567.46 266.25 571.74 269.97 576.99 274.05 583.3 278.52 590.84 283.02 599.32 287.96 608.57 293.34 618.55 298.79 628.77 304.66 638.84 310.94 648.59 317.27 657.4 323.98 664.8 331.01 670.75 338.08 674.62 345.43 676.16 353.04 675.67 360.66 672.75 368.51 667.51 376.57 660.74 384.63 652.51 392.72 643.37 400.82 634.1 408.94 624.9 417.12 616.24 425.36 608.73 433.68 602.37 442.13 597.33 450.73 593.98 459.47 591.98 468.44 591.19 477.64 591.8 487.04 593.18 496.72 595.03 506.67 597.52 516.79 599.9 527.15 601.87 537.66 603.71 548.19 604.69 558.71 604.68 569.06 604.03 579.11 602.21 588.69 599.21 597.58 595.45 605.74 590.57 612.86 584.69 618.72 578.17 623.47 570.84 626.72 562.86 628.38 554.46 628.89 545.61 627.9 536.45 625.53 527.1 622.52 517.59 618.65 508.04 614.26 498.44 610.27 488.88 606.56 479.43 603.55 469.99 602.06 460.69 601.94 451.57 603.4 442.48 606.91 433.56 612.05 424.83 618.65 416.13 626.68 407.6 635.4 399.26 644.25 390.92 652.95 382.95 660.39 375.33 666.08 367.7 670.12 360.41 671.77 353.44 670.96 346.43 668.11 339.72 662.97 333.31 655.87 326.81 647.43 320.57 637.76 314.56 627.35 308.41 616.77 302.45 606.24 296.63 596.13 290.61 586.82 284.67 578.39 278.78 570.94 272.63 564.71 266.47 559.49 260.28 555.16 253.79 551.93 247.25 549.31 240.66 547.12 233.82 545.58 226.95 544.09 220.13 542.48 213.17 541.08 206.34 539.26 199.75 536.93 193.22 534.5 187.08 531.41 181.41 527.65 176.05 523.67 171.33 518.99 167.32 513.67 163.78 508.13 161.03 502 159.13 495.35 157.69 488.55 157.03 481.31 157.14 473.69 157.52 466 158.49 458.01 159.95 449.77 161.35 441.5 163 433.02 164.82 424.36 166.22 415.71 167.56 407.07 168.79 398.49 169.48 389.89 170.07 381.31 170.58 372.75 170.66 364.15 170.81 355.52 171.1 346.86 171.23 338.13 171.71 329.32 172.62 320.45 173.66 311.48 175.3 302.43 177.59 293.32 180.22 284.14 183.57 274.94 187.63 265.77 192.12 256.65 197.29 247.66 203.08 238.91 209.25 230.39 215.95 222.27 223.1 214.68 230.49 207.55 238.22 201.11 246.21 195.5 254.29 190.51 262.54 186.44 270.9 183.35 279.24 180.87 287.64 179.3 296.06 178.6 304.41 178.24 312.77 178.49 321.14 179.19 329.42 179.73 337.72 180.36 346.05 180.88 354.31 180.71 362.64 180.12 371.03 179.02 379.38 176.94 387.84 174.29 396.4 171.14 404.95 167.23 413.64 163.12 422.44 159.06" stroke-dasharray="6 5" transform="rotate(16.16, 400, 400)" opacity="0.19"></path><path d="M421.75 170.08C430.14 166.02 438.35 162.6 446.37 159.99 454.36 157.97 462.13 157.1 469.61 157.45 477.04 158.68 484.13 161.15 490.83 164.77 497.4 169.16 503.51 174.48 509.11 180.54 514.51 186.96 519.34 193.8 523.54 200.88 527.53 207.85 530.89 214.78 533.62 221.56 537.2 230.94 541.97 247.4 543.73 254.53 546.07 260.73 553.23 272.26 558.95 278.01 564.08 281.71 570.08 285.67 576.96 289.92 584.86 294.13 593.48 298.7 602.65 303.64 612.3 308.6 622 313.94 631.4 319.68 640.35 325.44 648.32 331.57 654.9 338.06 660.12 344.56 663.41 351.39 664.56 358.54 663.9 365.69 661.04 373.15 656.09 380.89 649.76 388.64 642.09 396.5 633.53 404.47 624.81 412.46 616.05 420.59 607.67 428.85 600.24 437.18 593.74 445.69 588.36 454.39 584.46 463.19 581.75 472.22 580.15 481.47 579.88 490.83 580.39 500.41 581.46 510.16 583.27 519.96 585.13 529.86 586.81 539.76 588.56 549.53 589.71 559.12 590.09 568.37 590.06 577.19 589.06 585.41 587.05 592.82 584.43 599.47 580.79 605.04 576.21 609.37 571.05 612.71 565.06 614.68 558.38 615.25 551.27 614.9 543.62 613.32 535.56 610.64 527.26 607.59 518.7 603.96 509.98 600.05 501.15 596.69 492.26 593.75 483.39 591.56 474.5 590.83 465.66 591.38 456.94 593.37 448.23 597.18 439.65 602.41 431.22 608.88 422.81 616.59 414.54 624.88 406.44 633.23 398.35 641.44 390.59 648.51 383.17 654.02 375.73 658.1 368.59 660.04 361.75 659.75 354.86 657.62 348.24 653.37 341.86 647.25 335.4 639.8 329.13 631.08 323.05 621.49 316.83 611.54 310.74 601.42 304.74 591.45 298.55 582.02 292.41 573.21 286.29 565.16 279.92 558.12 273.54 551.95 267.12 546.61 260.46 542.27 253.77 538.59 247.06 535.42 240.16 532.97 233.29 530.73 226.52 528.55 219.68 526.72 213.04 524.68 206.69 522.32 200.46 520.01 194.66 517.22 189.37 513.9 182.26 508.46 172.16 494.46 169.39 485.97 168.24 480.02 167.84 473.59 168.13 466.73 168.67 459.81 169.74 452.52 171.27 444.89 172.73 437.23 174.41 429.28 176.24 421.06 177.67 412.83 179.04 404.54 180.31 396.2 181.04 387.85 181.67 379.45 182.21 370.99 182.32 362.52 182.47 353.97 182.72 345.36 182.77 336.71 183.12 327.98 183.83 319.19 184.61 310.37 185.92 301.49 187.81 292.61 189.98 283.75 192.82 274.93 196.31 266.23 200.19 257.67 204.74 249.33 209.9 241.32 215.42 233.61 221.5 226.38 228.05 219.73 234.87 213.56 242.08 208.1 249.6 203.45 257.26 199.38 265.15 196.17 273.19 193.84 281.28 192.01 289.47 190.97 297.72 190.66 305.95 190.55 314.21 190.91 322.48 191.61 330.71 192.05 338.95 192.49 347.19 192.77 355.4 192.35 363.63 191.51 371.88 190.18 380.11 187.94 388.38 185.19 396.69 181.99 405 178.11 413.35 174.07 421.74 170.08" stroke-dasharray="6 2" transform="rotate(20.200000000000003, 400, 400)" opacity="0.40"></path><path d="M418.79 181.11C426.73 177.15 434.42 173.77 441.85 171.15 449.26 169.05 456.37 168 463.15 168.08 469.87 168.96 476.22 171.01 482.14 174.16 487.96 178.05 493.32 182.87 498.16 188.45 502.87 194.45 507.05 200.94 510.68 207.77 514.18 214.59 517.16 221.49 519.63 228.34 522.08 234.88 524.13 241.23 525.85 247.35 528.63 255.68 534.73 270.46 538.8 277.13 542.41 281.17 546.61 285.2 551.49 289.3 557.31 293.17 563.87 297.19 571.15 301.43 579.22 305.56 587.82 309.96 596.76 314.68 605.98 319.34 615.08 324.36 623.74 329.72 631.9 335.08 639.04 340.8 644.84 346.87 649.37 352.93 652.12 359.36 652.93 366.12 652.12 372.89 649.34 379.99 644.67 387.45 638.77 394.9 631.63 402.53 623.65 410.32 615.47 418.13 607.17 426.12 599.12 434.29 591.82 442.51 585.28 450.92 579.65 459.52 575.3 468.17 571.98 477.03 569.67 486.04 568.58 495.1 568.26 504.28 568.53 513.53 569.59 522.72 570.85 531.88 572.09 540.89 573.56 549.66 574.65 558.12 575.19 566.09 575.29 576.97 570.75 593.54 565.97 598.58 559.63 601.15 542.71 599.4 532.56 595.67 525.38 592.77 517.84 589.51 510.06 586.17 502.13 583.49 494.04 581.31 485.88 579.91 477.66 579.89 469.42 581.05 461.22 583.48 453 587.53 444.85 592.8 436.79 599.12 428.74 606.5 420.79 614.34 412.96 622.2 405.13 629.94 397.6 636.65 390.35 641.96 383.07 646.04 376.06 648.2 369.3 648.37 362.49 646.91 355.9 643.48 349.5 638.3 343.02 631.84 336.69 624.08 330.49 615.37 324.16 606.17 317.91 596.6 311.73 586.97 305.37 577.64 299.03 568.69 292.7 560.28 286.17 552.66 279.61 545.74 273.04 539.55 266.28 534.24 259.52 529.57 252.78 525.44 245.93 522.02 239.16 518.93 232.53 516.02 225.91 513.55 219.55 511.05 213.51 508.39 204.95 504.51 190.92 494.91 185.8 488.95 182.05 482.38 178.83 466.64 179.21 457.55 179.88 451.29 181.05 444.62 182.63 437.56 184.12 430.49 185.83 423.05 187.67 415.29 189.12 407.52 190.51 399.61 191.8 391.59 192.59 383.57 193.27 375.44 193.85 367.22 194 359 194.17 350.68 194.41 342.29 194.42 333.89 194.66 325.42 195.21 316.92 195.79 308.45 196.81 299.97 198.34 291.53 200.1 283.19 202.45 274.96 205.41 266.93 208.7 259.1 212.62 251.57 217.13 244.44 221.99 237.65 227.4 231.37 233.3 225.71 239.48 220.51 246.08 216.01 253.02 212.28 260.15 209.06 267.55 206.61 275.14 204.94 282.84 203.65 290.68 203.02 298.61 202.98 306.57 203.03 314.58 203.43 322.63 204.04 330.66 204.33 338.72 204.55 346.77 204.57 354.8 203.89 362.84 202.81 370.86 201.26 378.88 198.88 386.89 196.04 394.88 192.82 402.87 188.98 410.85 185.01 418.78 181.11" stroke-dasharray="6 3" transform="rotate(24.24, 400, 400)" opacity="0.14"></path><path d="M413.89 192.13C421.34 188.28 428.51 184.96 435.37 182.34 442.21 180.18 448.72 178.98 454.86 178.8 460.96 179.36 466.67 181 471.95 183.68 477.16 187.07 481.92 191.36 486.22 196.43 490.44 201.95 494.2 208.03 497.49 214.5 500.75 221.07 503.59 227.82 506.06 234.62 508.6 241.23 510.88 247.74 512.99 254.09 515.36 260.07 517.72 265.85 520.18 271.41 523.15 276.56 526.42 281.54 530.1 286.38 534.49 290.87 539.44 295.29 544.99 299.71 551.32 303.87 558.26 308.12 565.75 312.49 573.83 316.71 582.25 321.12 590.83 325.78 599.52 330.35 607.96 335.21 615.87 340.37 623.22 345.49 629.56 350.94 634.62 356.72 638.51 362.48 640.77 368.59 641.26 375.05 640.33 381.5 637.64 388.3 633.24 395.47 627.76 402.63 621.14 410 613.73 417.55 606.09 425.11 598.26 432.87 590.57 440.81 583.47 448.76 576.95 456.9 571.18 465.19 566.48 473.5 562.66 481.94 559.73 490.47 557.89 498.98 556.8 507.51 556.29 515.99 556.59 524.35 557.17 532.54 557.86 540.46 558.91 548.09 559.75 555.28 560.23 561.9 559.15 576.96 549.38 587.64 543.16 586.82 538.44 585.49 533.13 583.41 527.3 580.75 521.22 578.14 514.73 575.36 507.92 572.67 500.94 570.7 493.73 569.27 486.36 568.61 478.91 569.24 471.35 570.92 463.75 573.74 456.12 577.96 448.48 583.22 440.86 589.36 433.25 596.4 425.66 603.79 418.14 611.17 410.61 618.44 403.31 624.78 396.23 629.89 389.14 633.93 382.25 636.28 375.55 636.85 368.81 635.97 362.23 633.31 355.8 629.02 349.28 623.51 342.88 616.73 336.57 608.94 330.14 600.56 323.76 591.68 317.42 582.56 310.93 573.52 304.45 564.65 297.97 556.13 291.34 548.16 284.7 540.74 278.07 533.89 271.31 527.79 264.58 522.26 257.92 517.25 251.22 512.9 244.64 508.94 238.26 505.25 231.96 502.02 225.94 498.89 220.29 495.75 212.39 491.33 199.74 481.52 195.27 475.8 192.1 469.69 189.74 455.25 190.38 446.92 191.17 441.19 192.41 435.05 194.03 428.51 195.54 421.96 197.26 415.02 199.09 407.73 200.56 400.43 201.97 392.95 203.29 385.33 204.13 377.72 204.86 369.96 205.49 362.11 205.7 354.26 205.91 346.32 206.16 338.32 206.16 330.34 206.34 322.32 206.78 314.31 207.18 306.36 207.97 298.46 209.2 290.67 210.58 283.02 212.5 275.55 214.96 268.34 217.7 261.36 221.01 254.74 224.89 248.57 229.08 242.74 233.8 237.44 239.01 232.76 244.51 228.5 250.43 224.9 256.72 222.01 263.22 219.53 270.02 217.73 277.06 216.6 284.23 215.73 291.58 215.4 299.06 215.53 306.61 215.64 314.25 215.98 321.93 216.45 329.64 216.54 337.38 216.51 345.11 216.25 352.85 215.32 360.59 214 368.28 212.26 375.99 209.75 383.66 206.84 391.26 203.6 398.88 199.82 406.42 195.94 413.88 192.14" stroke-dasharray="4 1" transform="rotate(28.28, 400, 400)" opacity="0.55"></path><path d="M407.54 203.16C414.5 199.42 421.15 196.17 427.48 193.57 436.78 190.69 453.54 190.5 460.93 193.35 465.69 196.23 470.04 200 473.99 204.53 477.92 209.53 481.46 215.12 484.64 221.16 487.85 227.39 490.76 233.87 493.43 240.49 496.23 247.03 498.9 253.56 501.51 260.02 504.43 266.21 507.43 272.26 510.62 278.14 514.3 283.69 518.31 289.07 522.72 294.32 527.76 299.24 533.29 304.07 539.33 308.85 545.99 313.38 553.12 317.93 560.64 322.54 568.57 326.97 576.68 331.53 584.79 336.27 592.87 340.89 600.61 345.73 607.75 350.82 614.3 355.85 619.87 361.15 624.24 366.75 627.53 372.32 629.34 378.21 629.56 384.41 628.54 390.61 625.94 397.14 621.82 404.02 616.73 410.89 610.62 417.96 603.76 425.2 596.65 432.44 589.31 439.85 582.01 447.41 575.16 454.97 568.75 462.67 562.91 470.46 557.97 478.24 553.76 486.07 550.31 493.9 547.83 501.66 546.03 509.35 544.79 516.88 544.34 524.24 544.22 531.33 544.3 538.06 545.04 547.42 545.81 562.52 545.22 567.82 540.73 572.4 526.83 569.44 519.84 566.03 514.78 563.84 509.29 561.63 503.42 559.6 497.39 558.34 491.07 557.63 484.51 557.66 477.87 558.86 471.04 561 464.09 564.12 457.11 568.46 450.04 573.67 442.91 579.6 435.78 586.28 428.61 593.24 421.43 600.15 414.24 606.95 407.21 612.93 400.33 617.81 393.44 621.79 386.69 624.27 380.07 625.18 373.42 624.83 366.87 622.86 360.43 619.39 353.91 614.8 347.47 608.97 341.08 602.12 334.6 594.64 328.14 586.53 321.71 578.05 315.17 569.49 308.63 560.92 302.1 552.5 295.47 544.43 288.86 536.74 282.27 529.48 275.63 522.79 269.05 516.59 262.59 510.85 256.14 505.7 249.86 500.92 243.82 496.46 237.92 492.46 232.33 488.64 227.13 484.91 219.96 479.73 208.75 469.09 204.93 463.31 202.32 457.32 200.76 443.6 201.63 435.81 202.52 430.47 203.82 424.75 205.46 418.66 206.99 412.56 208.7 406.09 210.51 399.26 211.99 392.43 213.42 385.42 214.75 378.27 215.64 371.12 216.43 363.84 217.12 356.46 217.4 349.11 217.66 341.68 217.94 334.22 217.96 326.8 218.12 319.39 218.48 312.02 218.76 304.75 219.37 297.58 220.34 290.58 221.41 283.74 222.95 277.14 224.96 270.84 227.2 264.8 229.95 259.13 233.22 253.94 238.79 246.89 252.72 236.16 260.91 232.59 266.72 230.74 272.85 229.46 279.24 228.74 285.78 228.17 292.54 228.02 299.46 228.21 306.47 228.29 313.6 228.51 320.8 228.78 328.06 228.64 335.35 228.34 342.66 227.8 349.99 226.62 357.32 225.08 364.6 223.16 371.9 220.55 379.15 217.59 386.31 214.35 393.49 210.64 400.57 206.86 407.53 203.17" stroke-dasharray="4 0" transform="rotate(32.32, 400, 400)" opacity="0.10"></path><path d="M400.41 214.19C406.87 210.57 413.03 207.41 418.88 204.83 427.47 201.87 442.95 200.96 449.82 203.19 456.33 207.2 467.72 219.76 472.72 227.84 476.04 233.62 479.17 239.73 482.16 246.06 485.34 252.4 488.48 258.82 491.64 265.24 495.13 271.5 498.77 277.68 502.62 283.75 506.93 289.57 511.57 295.27 516.57 300.84 522.1 306.14 528.04 311.34 534.37 316.47 541.19 321.36 548.33 326.24 555.71 331.12 563.34 335.84 571.02 340.62 578.57 345.51 586 350.28 593 355.2 599.37 360.31 605.15 365.34 609.99 370.6 613.7 376.09 616.44 381.55 617.85 387.27 617.84 393.27 616.74 399.25 614.24 405.53 610.39 412.1 605.7 418.67 600.07 425.39 593.74 432.24 587.17 439.09 580.32 446.06 573.44 453.12 566.89 460.17 560.63 467.28 554.82 474.42 549.74 481.52 545.25 488.59 541.39 495.57 538.37 502.45 535.95 509.17 534.05 515.65 532.48 524.91 531.41 540.94 531.27 547.34 521.83 555.78 503.91 549.15 496.61 547.01 491.47 546.43 485.99 546.4 480.22 547.05 474.38 548.75 468.29 551.27 462.01 554.63 455.7 559.03 449.22 564.14 442.62 569.83 436.01 576.16 429.29 582.68 422.49 589.12 415.69 595.47 408.97 601.09 402.33 605.73 395.68 609.61 389.11 612.19 382.62 613.38 376.1 613.48 369.64 612.13 363.23 609.43 356.78 605.69 350.36 600.78 343.97 594.88 337.52 588.31 331.08 581.06 324.65 573.33 318.16 565.39 311.67 557.28 305.21 549.17 298.7 541.24 292.22 533.52 285.82 526.08 279.4 519.06 273.09 512.4 266.93 506.13 260.84 500.34 254.96 494.89 249.35 489.76 243.91 485.04 238.81 480.54 234.12 476.2 227.72 470.16 217.98 458.35 214.81 452.28 212.74 446.14 211.91 432.66 212.97 425.21 213.95 420.14 215.28 414.74 216.92 409.02 218.45 403.3 220.15 397.25 221.94 390.88 223.41 384.52 224.84 377.99 226.19 371.35 227.13 364.71 227.97 357.97 228.73 351.17 229.09 344.4 229.42 337.59 229.76 330.78 229.82 324.04 229.99 317.34 230.31 310.74 230.52 304.25 230.99 297.9 231.77 291.77 233.19 282.97 238.35 267.31 242.19 260.7 246.83 254.99 258.7 246.6 265.82 243.97 273.61 242.16 290.89 240.83 300.2 240.94 306.59 240.92 313.11 240.96 319.73 240.99 326.42 240.6 333.18 240.02 339.96 239.21 346.78 237.79 353.6 236.05 360.39 233.97 367.21 231.27 373.97 228.28 380.65 225.07 387.35 221.44 393.94 217.76 400.4 214.19" stroke-dasharray="1 2" transform="rotate(36.36, 400, 400)" opacity="0.74"></path><path d="M393.24 225.22C399.21 221.73 404.92 218.67 410.35 216.13 415.76 213.88 420.89 212.35 425.73 211.56 435.39 211.56 443.92 214.9 451.4 221.25 459.06 229.43 466.03 239.76 472.61 251.46 480.01 263.51 487.72 275.97 496.16 288.34 506.2 300.04 517.47 311.39 529.96 322.39 543.81 332.6 558.18 342.74 572.12 352.98 585.26 362.77 595.99 373.04 603 383.92 605.24 389.31 606.3 394.91 606.09 400.71 604.94 406.5 602.55 412.51 598.97 418.76 594.65 425.01 589.49 431.34 583.68 437.74 577.62 444.13 571.27 450.58 564.83 457.05 552.78 469.92 541.91 482.69 532.92 494.92 526.77 506.68 522.5 517.36 519.63 526.41 515.96 540.93 499.56 538.25 487.76 534.94 478.92 535.84 468.74 539.15 457.52 545.25 451.85 549.65 445.98 554.63 439.92 560.06 433.85 566.02 427.61 572.1 421.23 578.09 414.84 584 408.47 589.25 402.12 593.65 395.77 597.41 389.43 600.04 383.13 601.45 370.48 601.43 357.86 596.4 345.32 587.16 332.65 575.3 319.99 561.12 307.48 545.94 294.94 530.89 282.71 516.36 271.13 502.88 259.97 490.82 249.9 479.87 241.35 469.81 233.84 460.87 228.27 452.18 224.91 443.35 222.73 434.96 222.61 425.93 224.41 416.06 226.12 408.57 230.77 392.33 233.36 383.57 234.83 377.64 236.26 371.61 237.62 365.5 238.6 359.41 239.49 353.25 240.31 347.08 240.85 334.83 241.4 322.69 242.22 311.02 242.49 299.79 243.78 289.43 246.34 280.36 249.31 272.1 253.97 265.48 260.22 260.76 267.27 256.85 275.83 254.67 285.61 254.05 296.01 253.29 307.33 253.14 319.19 253.04 331.37 251.24 343.85 248.52 356.3 244.67 362.57 241.92 368.81 238.92 374.98 235.75 381.16 232.21 387.25 228.66 393.23 225.22" stroke-dasharray="6 8" transform="rotate(40.400000000000006, 400, 400)" opacity="0.48"></path><path d="M386.77 236.24C397.8 229.62 407.92 224.93 417.1 222.69 426.29 222.17 434.64 224.68 442.24 229.96 450.11 236.98 457.59 246.15 464.96 256.82 473.14 268.08 481.78 279.99 491.13 292.06 501.79 303.78 513.44 315.34 525.92 326.61 539.27 337.29 552.72 347.84 565.39 358.35 577.06 368.47 586.33 378.86 592.15 389.61 594.97 400.24 593.46 411.44 587.54 423.22 579.12 435.01 568.2 446.85 556.18 458.52 544.77 470.08 534.11 481.24 524.87 491.61 517.97 501.52 512.67 510.19 508.68 517.17 502.64 527.52 487.41 524.84 477.3 523.4 469.75 525.4 460.87 529.53 450.86 535.97 440.72 545.31 429.63 556.09 417.75 567.06 405.88 577.78 393.83 585.52 381.76 589.4 369.67 590.16 357.5 586.48 345.37 578.93 333.2 568.89 321.07 556.4 309.16 542.57 297.37 528.43 286 514.31 275.37 500.79 265.29 488.25 256.33 476.57 248.9 465.72 242.47 455.82 237.85 446.32 235.28 436.96 233.7 428.06 233.96 418.83 235.92 409.13 238.05 399.51 241.13 389.2 244.79 378.18 247.36 367.16 249.76 355.99 251.86 344.91 252.6 333.96 253.31 323.31 254.2 313.3 254.46 303.68 255.54 295.02 257.65 287.66 259.97 280.94 263.74 275.73 268.92 272.18 274.71 269.12 281.92 267.46 290.31 266.97 299.24 266.08 309.13 265.53 319.63 264.87 330.46 262.57 341.67 259.41 352.97 255.27 364.38 249.28 375.73 242.71 386.76 236.25" stroke-dasharray="1 10" transform="rotate(44.44, 400, 400)" opacity="0.35"></path><path d="M381.67 247.27C391.83 240.94 401.33 236.35 410.14 233.93 418.99 232.96 427.28 234.69 435.1 238.96 443.22 244.82 451.22 252.78 459.29 262.29 468.1 272.55 477.41 283.66 487.34 295.14 498.28 306.55 509.94 317.98 522.07 329.23 534.66 340.11 547 350.85 558.32 361.46 568.53 371.78 576.42 382.19 581.16 392.74 583.29 403.19 581.63 413.94 576.12 424.97 568.46 436 558.54 446.79 547.48 457.13 536.77 467.37 526.47 476.96 517.19 485.58 509.78 493.79 503.66 500.7 498.7 506 490.11 513.45 474.71 512.07 465.81 512.41 459.25 515.36 451.44 520.13 442.49 526.78 433.45 535.81 423.39 545.91 412.44 556.04 401.49 565.94 390.23 573.25 378.84 577.25 367.46 578.65 355.94 576.16 344.45 570.17 333 561.89 321.63 551.15 310.56 538.86 299.72 525.95 289.38 512.63 279.87 499.52 270.94 486.97 263.16 475 256.86 463.72 251.47 453.17 247.77 443.08 245.9 433.3 244.86 423.93 245.45 414.52 247.53 404.93 249.68 395.45 252.68 385.58 256.21 375.34 258.76 365.1 261.19 354.98 263.37 345.18 264.3 335.47 265.19 326.26 266.21 317.8 266.53 309.66 267.5 302.52 269.3 296.63 272.66 289.13 286.14 281.15 296.23 279.87 303.77 278.71 312.26 277.69 321.43 276.45 330.88 273.67 340.8 270.12 350.95 265.77 361.19 259.82 371.5 253.46 381.67 247.27" stroke-dasharray="8 9" transform="rotate(48.48, 400, 400)" opacity="0.60"></path><path d="M378.47 258.3C387.83 252.29 396.78 247.82 405.29 245.27 413.86 243.92 422.13 244.96 430.18 248.28 438.52 253.02 446.92 259.75 455.51 268.03 464.71 277.13 474.39 287.21 484.56 297.86 495.43 308.64 506.76 319.61 518.23 330.54 529.84 341.28 540.95 351.93 550.87 362.41 559.67 372.71 566.27 382.98 570.03 393.19 571.56 403.34 569.79 413.57 564.69 423.79 557.77 434.02 548.81 443.74 538.72 452.82 528.78 461.79 518.97 469.94 509.82 477.03 502.12 483.8 495.43 489.28 489.7 493.3 483.54 497.96 473.65 500.26 468.15 499.39 464.42 499.65 459.71 500.34 453.92 501.97 448.06 505.71 441.09 510.95 433.05 517.68 424.95 526.32 415.85 535.72 405.84 545.01 395.83 554.11 385.44 560.97 374.87 564.99 364.34 566.9 353.65 565.44 343.01 560.87 332.47 554.26 322.07 545.27 312.03 534.63 302.29 523.16 293.11 510.98 284.81 498.67 277.08 486.56 270.49 474.75 265.29 463.44 260.9 452.63 258.03 442.25 256.8 432.26 256.22 422.61 257.07 413.1 259.21 403.66 261.35 394.33 264.24 384.89 267.64 375.39 270.14 365.88 272.58 356.74 274.82 348.11 275.95 339.55 277.04 331.63 278.2 324.54 279.14 314.74 283.98 300.94 288.77 297.08 292.56 294.87 297.49 293.45 303.44 292.62 309.72 291.09 316.92 289.55 324.84 287.74 332.97 284.53 341.66 280.66 350.68 276.16 359.79 270.31 369.1 264.19 378.47 258.3" stroke-dasharray="0 8" transform="rotate(52.52, 400, 400)" opacity="0.77"></path><path d="M377.5 269.32C386.13 263.65 394.57 259.35 402.8 256.72 411.11 255.07 419.33 255.5 427.5 257.94 435.94 261.62 444.56 267.13 453.41 274.15 462.72 281.99 472.43 290.9 482.48 300.48 492.96 310.36 503.65 320.58 514.23 330.88 524.7 341.15 534.49 351.4 543.02 361.5 550.46 371.51 555.88 381.42 558.76 391.15 559.78 400.85 557.96 410.45 553.27 419.83 547.06 429.21 539.01 437.92 529.89 445.83 520.77 453.66 511.54 460.57 502.71 466.42 494.95 472.04 487.91 476.48 481.64 479.65 474.29 483.51 462.28 486.28 456.27 486.62 452.38 487.82 447.77 489.52 442.33 492.08 436.91 496.42 430.55 501.97 423.26 508.64 415.94 516.82 407.71 525.51 398.63 533.98 389.54 542.3 380.09 548.68 370.45 552.65 360.87 554.94 351.17 554.33 341.55 551.03 332.07 545.95 322.78 538.65 313.91 529.69 305.37 519.81 297.43 509.02 290.37 497.83 283.85 486.56 278.41 475.33 274.26 464.4 270.78 453.74 268.65 443.42 267.97 433.51 267.78 423.83 268.82 414.39 270.98 405.21 273.07 396.11 275.83 387.13 279.06 378.31 281.51 369.49 283.93 361.24 286.22 353.65 287.53 346.09 288.8 339.26 290.13 333.3 291.28 325 295.71 313.44 299.76 310.04 304.89 307.08 320.14 302.06 329.96 298.7 336.9 295.13 344.45 291.02 352.44 286.43 360.48 280.74 368.88 274.89 377.5 269.32" stroke-dasharray="3 10" transform="rotate(56.56, 400, 400)" opacity="0.80"></path><path d="M378.87 280.35C386.8 275.04 394.76 270.94 402.68 268.28 410.67 266.4 418.74 266.3 426.89 267.97 435.24 270.67 443.84 275.03 452.65 280.79 461.78 287.34 471.2 294.96 480.79 303.34 490.6 312.09 500.41 321.3 509.89 330.71 519.12 340.21 527.56 349.77 534.74 359.22 540.9 368.67 545.24 377.99 547.37 387.07 547.95 396.16 546.12 405.02 541.84 413.54 536.31 422.07 529.16 429.82 520.98 436.72 512.71 443.56 504.17 449.47 495.79 454.38 488.18 459.18 481.03 462.93 474.45 465.65 466.24 469.23 452.38 473.16 445.76 474.77 441.59 476.84 436.92 479.41 431.66 482.7 426.47 487.47 420.55 493.16 413.88 499.67 407.19 507.33 399.74 515.28 391.56 522.95 383.37 530.49 374.88 536.37 366.26 540.23 357.7 542.77 349.08 542.87 340.59 540.65 332.25 536.95 324.17 531.22 316.55 523.91 309.23 515.68 302.55 506.42 296.72 496.57 291.36 486.47 286.99 476.18 283.79 465.99 281.12 455.89 279.65 446 279.41 436.45 279.52 427.04 280.69 417.92 282.81 409.13 284.83 400.4 287.44 391.92 290.49 383.77 292.85 375.62 295.24 368.16 297.56 361.43 299.75 351.74 303.4 336.47 305.53 330.99 307.73 326.26 315.59 319.7 321.52 317.07 325.84 314.65 330.96 312.11 336.78 309.31 342.69 305.46 349.23 301.19 356.3 296.6 363.39 291.11 370.94 285.58 378.87 280.35" stroke-dasharray="6 8" transform="rotate(60.599999999999994, 400, 400)" opacity="0.58"></path><path d="M382.44 291.38C389.71 286.44 397.15 282.57 404.69 279.94 412.28 277.91 420.06 277.39 427.98 278.38 436.04 280.21 444.35 283.51 452.82 288.07 461.48 293.34 470.31 299.64 479.17 306.72 488.07 314.21 496.8 322.24 505.08 330.55 513.02 339.03 520.12 347.65 526.01 356.22 531 364.85 534.38 373.38 535.86 381.67 536.09 389.97 534.28 398.02 530.41 405.68 525.53 413.34 519.23 420.22 511.98 426.27 504.58 432.29 496.8 437.45 489 441.73 481.72 445.97 474.69 449.36 468.04 451.94 459.32 455.63 444.08 461.1 436.92 463.93 432.44 466.74 427.65 470 422.46 473.83 417.38 478.83 411.77 484.51 405.61 490.74 399.45 497.82 392.69 505.04 385.36 511.93 378.03 518.71 370.51 524.07 362.93 527.75 355.41 530.42 347.91 531.06 340.6 529.75 333.44 527.24 326.58 522.95 320.21 517.19 314.11 510.58 308.63 502.91 303.96 494.55 299.66 485.82 296.27 476.74 293.9 467.58 291.94 458.38 290.99 449.25 291.1 440.36 291.44 431.53 292.67 422.95 294.72 414.72 296.63 406.52 299.06 398.63 301.91 391.13 304.17 383.64 306.51 376.88 308.82 370.86 311.21 362.18 315.41 348.56 317.69 343.55 319.89 338.98 326.92 331.8 332.04 328.5 335.69 325.67 340.06 322.71 345.09 319.54 350.16 315.51 355.85 311.18 362.1 306.66 368.37 301.43 375.16 296.24 382.44 291.38" stroke-dasharray="1 9" transform="rotate(64.64, 400, 400)" opacity="0.42"></path><path d="M387.82 302.41C394.45 297.87 401.33 294.27 408.38 291.71 415.47 289.6 422.79 288.76 430.26 289.19 437.83 290.27 445.59 292.61 453.45 296.07 461.39 300.13 469.39 305.15 477.28 310.92 485.11 317.09 492.65 323.82 499.67 330.9 506.3 338.19 512.12 345.69 516.82 353.22 520.76 360.83 523.31 368.4 524.24 375.77 524.19 383.17 522.45 390.34 518.98 397.15 514.72 403.95 509.24 410.05 502.89 415.41 496.37 420.76 489.4 425.38 482.29 429.28 475.5 433.2 468.78 436.46 462.29 439.12 456.32 441.94 450.56 444.35 445.01 446.45 439.92 448.99 434.9 451.5 429.89 454.13 425.16 457.51 420.25 461.25 415.13 465.42 410.12 470.48 404.76 476 399.04 481.84 393.33 488.31 387.21 494.78 380.69 500.9 374.17 506.93 367.58 511.76 361.04 515.21 354.54 517.9 348.15 518.94 342.01 518.36 335.99 516.85 330.31 513.8 325.13 509.45 320.17 504.37 315.8 498.27 312.17 491.42 308.82 484.18 306.27 476.48 304.6 468.56 303.21 460.51 302.69 452.4 303.04 444.42 303.53 436.43 304.76 428.61 306.69 421.09 308.46 413.58 310.7 406.36 313.34 399.53 316.6 389.63 322.55 373.25 325.22 366.7 329.63 355.94 338.62 343.19 343.19 339.27 348.28 334.45 361.48 323.13 369.53 316.6 375.08 311.69 381.18 306.88 387.82 302.41" stroke-dasharray="2 3" transform="rotate(68.68, 400, 400)" opacity="0.43"></path><path d="M394.47 313.43C406.45 305.31 419.56 300.84 433.15 300.38 446.92 301.86 461.17 307.47 474.83 316.16 487.97 326.22 499.35 338.27 507.18 350.94 512.56 363.98 512.95 376.99 507.56 388.94 499.7 400.89 488.34 410.52 475.59 417.84 463.51 425.39 451.44 431.3 440.08 436.17 430.04 442.6 420.04 449.54 409.91 457.42 400.19 467.9 389.53 479.27 378.02 489.87 366.5 500.21 355.26 505.92 345.08 506.52 335.26 504.35 327.07 497.31 321.36 486.95 316.44 475.12 314.3 461.56 315.2 447.79 316.31 433.85 319.63 420.28 324.76 407.98 328.28 395.68 332.31 385.7 336.54 377.96 339.05 369.88 342.48 363.45 347.11 358.27 351.06 351.76 356.93 345.37 364.81 338.83 372.55 330.21 382.47 321.36 394.47 313.43" stroke-dasharray="5 11" transform="rotate(72.72, 400, 400)" opacity="0.92"></path><path d="M401.69 324.46C412.36 317.19 424.01 312.94 436 311.97 448.02 312.34 460.21 316.15 471.56 322.64 482.29 330.21 491.26 339.71 497.09 350.05 501.03 360.74 500.91 371.69 496.14 382.03 489.51 392.37 479.88 401.07 468.85 408.11 458.08 415.44 446.95 421.75 436.21 427.45 426.33 434.43 416.52 441.84 406.83 449.8 397.48 459.55 387.69 469.67 377.63 478.84 367.56 487.82 358.16 493.07 349.98 494.26 342.03 493.49 335.68 488.7 331.51 480.96 327.82 471.98 326.45 461.16 327.56 449.73 328.66 438.06 331.62 426.38 336.19 415.5 339.48 404.62 343.39 395.5 347.61 388.09 350.47 380.35 354.12 373.76 358.72 368.06 362.66 361.27 368.14 354.55 375.25 347.88 382.19 339.7 391.01 331.58 401.69 324.46" stroke-dasharray="4 7" transform="rotate(76.76, 400, 400)" opacity="0.52"></path><path d="M408.73 335.49C418.03 329.11 428.06 325.21 438.19 323.92 448.28 323.51 458.26 325.85 467.25 330.44 475.68 335.82 482.45 342.96 486.57 351.09 489.32 359.49 488.84 368.42 484.71 377.22 479.24 386.02 471.28 393.84 462 400.62 452.73 407.65 442.88 414.17 433.15 420.34 423.93 427.44 414.71 434.87 405.76 442.49 397.04 451.26 388.22 460.04 379.56 467.82 370.89 475.45 363.14 480.13 356.68 481.65 350.34 481.86 345.5 478.88 342.52 473.39 339.78 466.96 338.93 458.73 340.07 449.64 341.08 440.31 343.64 430.6 347.61 421.2 350.62 411.8 354.32 403.55 358.41 396.48 361.47 389.14 365.25 382.54 369.78 376.55 373.75 369.76 378.92 363.04 385.36 356.54 391.63 349.02 399.43 341.74 408.73 335.49" stroke-dasharray="0 8" transform="rotate(80.80000000000001, 400, 400)" opacity="1.00"></path><path d="M414.87 346.52C422.73 341.09 431 337.64 439.16 336.22 447.24 335.32 455 336.56 461.77 339.63 468.07 343.19 472.93 348.29 475.65 354.42 477.44 360.73 476.75 367.77 473.29 375.08 468.91 382.39 462.53 389.28 454.99 395.64 447.35 402.19 439.03 408.56 430.63 414.75 422.49 421.54 414.29 428.51 406.37 435.43 398.59 443.02 390.9 450.39 383.61 456.79 365.69 466.91 351.94 456.99 352.7 447.12 353.55 440.02 355.68 432.29 359.04 424.42 361.7 416.55 365.08 409.27 368.9 402.71 372 395.95 375.75 389.6 380.1 383.67 384.01 377.21 388.85 370.85 394.62 364.81 400.23 358.15 407 351.85 414.87 346.52" stroke-dasharray="3 10" transform="rotate(84.84, 400, 400)" opacity="0.82"></path><path d="M419.46 357.54C432.18 348.8 445.19 346.54 455.02 350.12 463.57 354.77 466.78 364.13 461.86 375.85 454.68 387.56 442.03 399.48 428.37 410.51 415.06 422.91 401.2 435.78 389.36 445.76 373.56 456.68 364.01 442.69 370.46 424.79 374.45 412.18 381.24 400.01 389.48 389.42 396.58 377.63 406.74 366.07 419.46 357.54" stroke-dasharray="7 9" transform="rotate(88.88, 400, 400)" opacity="0.74"></path><path d="M422.04 368.57C436.16 360.79 453.43 367.48 450.44 379.45 445.34 388.27 436.21 398.09 426.06 407.41 415.94 417.34 405.24 427.31 396.21 434.74 384.26 443.13 377.12 435.18 381.89 422.25 385.17 412.83 390.92 402.88 397.83 393.89 404.1 384.36 412.44 375.17 422.04 368.57" stroke-dasharray="4 8" transform="rotate(92.92, 400, 400)" opacity="0.33"></path><path d="M422.33 379.6C435.13 370.54 443.7 373.55 439.01 385.45 432.17 397.33 415.71 414.04 403.46 423.71 391.2 433.14 387.16 429.57 393.31 417.11 397.53 404.63 409.52 388.43 422.33 379.6" stroke-dasharray="8 10" transform="rotate(96.96, 400, 400)" opacity="0.84"></path></g></svg>