<svg xmlns="http://www.w3.org/2000/svg" version="1.1" xmlns:xlink="http://www.w3.org/1999/xlink" xmlns:svgjs="http://svgjs.dev/svgjs" viewBox="0 0 800 800"><circle r="7.5" cx="487" cy="149" stroke-width="2" stroke="hsl(255, 50%, 50%)" fill="none" opacity="0.38"></circle><circle r="11" cx="344" cy="426" stroke-width="2" stroke="hsl(283, 50%, 50%)" fill="none" opacity="0.30"></circle><circle r="10.5" cx="117" cy="53" stroke-width="2" stroke="hsl(271, 50%, 50%)" fill="none" opacity="0.51"></circle><circle r="6.5" cx="455" cy="582" stroke-width="2" stroke="hsl(285, 50%, 50%)" fill="none" opacity="0.31"></circle><circle r="7" cx="775" cy="422" stroke-width="2" stroke="hsl(230, 50%, 50%)" fill="none" opacity="0.17"></circle><circle r="8" cx="593" cy="451" stroke-width="2" stroke="hsl(233, 50%, 50%)" fill="none" opacity="0.42"></circle><circle r="7.5" cx="684" cy="189" stroke-width="2" stroke="hsl(229, 50%, 50%)" fill="none" opacity="0.24"></circle><circle r="7" cx="91" cy="520" stroke-width="2" stroke="hsl(227, 50%, 50%)" fill="none" opacity="0.59"></circle><circle r="12" cx="354" cy="234" stroke-width="2" stroke="hsl(287, 50%, 50%)" fill="none" opacity="0.32"></circle><circle r="8.5" cx="185" cy="337" stroke-width="2" stroke="hsl(230, 50%, 50%)" fill="none" opacity="0.10"></circle><circle r="7.5" cx="278" cy="58" stroke-width="2" stroke="hsl(261, 50%, 50%)" fill="none" opacity="0.82"></circle><circle r="4" cx="44" cy="219" stroke-width="2" stroke="hsl(216, 50%, 50%)" fill="none" opacity="0.42"></circle><circle r="8" cx="74" cy="320" stroke-width="2" stroke="hsl(223, 50%, 50%)" fill="none" opacity="0.13"></circle><circle r="11.5" cx="471" cy="412" stroke-width="2" stroke="hsl(281, 50%, 50%)" fill="none" opacity="0.84"></circle><circle r="8.5" cx="276" cy="275" stroke-width="2" stroke="hsl(256, 50%, 50%)" fill="none" opacity="0.88"></circle><circle r="9.5" cx="358" cy="572" stroke-width="2" stroke="hsl(287, 50%, 50%)" fill="none" opacity="0.75"></circle><circle r="6" cx="112" cy="401" stroke-width="2" stroke="hsl(228, 50%, 50%)" fill="none" opacity="0.17"></circle><circle r="8" cx="199" cy="52" stroke-width="2" stroke="hsl(269, 50%, 50%)" fill="none" opacity="0.94"></circle><circle r="9.5" cx="18" cy="408" stroke-width="2" stroke="hsl(208, 50%, 50%)" fill="none" opacity="0.23"></circle><circle r="14.5" cx="708" cy="63" stroke-width="2" stroke="hsl(267, 50%, 50%)" fill="none" opacity="0.35"></circle><circle r="8.5" cx="186" cy="71" stroke-width="2" stroke="hsl(268, 50%, 50%)" fill="none" opacity="0.73"></circle><circle r="9.5" cx="312" cy="719" stroke-width="2" stroke="hsl(267, 50%, 50%)" fill="none" opacity="0.85"></circle><circle r="10" cx="158" cy="216" stroke-width="2" stroke="hsl(229, 50%, 50%)" fill="none" opacity="0.92"></circle><circle r="6.5" cx="428" cy="91" stroke-width="2" stroke="hsl(248, 50%, 50%)" fill="none" opacity="0.70"></circle><circle r="12" cx="459" cy="694" stroke-width="2" stroke="hsl(285, 50%, 50%)" fill="none" opacity="0.97"></circle><circle r="4.5" cx="9" cy="620" stroke-width="2" stroke="hsl(203, 50%, 50%)" fill="none" opacity="0.42"></circle><circle r="11" cx="712" cy="508" stroke-width="2" stroke="hsl(229, 50%, 50%)" fill="none" opacity="0.21"></circle><circle r="9.5" cx="182" cy="254" stroke-width="2" stroke="hsl(230, 50%, 50%)" fill="none" opacity="0.43"></circle><circle r="6.5" cx="500" cy="97" stroke-width="2" stroke="hsl(227, 50%, 50%)" fill="none" opacity="0.82"></circle><circle r="9" cx="783" cy="220" stroke-width="2" stroke="hsl(230, 50%, 50%)" fill="none" opacity="1.00"></circle><circle r="13" cx="532" cy="501" stroke-width="2" stroke="hsl(254, 50%, 50%)" fill="none" opacity="0.98"></circle><circle r="10" cx="407" cy="234" stroke-width="2" stroke="hsl(294, 50%, 50%)" fill="none" opacity="0.16"></circle><circle r="7.5" cx="621" cy="422" stroke-width="2" stroke="hsl(229, 50%, 50%)" fill="none" opacity="0.36"></circle><circle r="6.5" cx="631" cy="197" stroke-width="2" stroke="hsl(228, 50%, 50%)" fill="none" opacity="0.66"></circle><circle r="5.5" cx="238" cy="188" stroke-width="2" stroke="hsl(241, 50%, 50%)" fill="none" opacity="0.25"></circle><circle r="9" cx="706" cy="740" stroke-width="2" stroke="hsl(229, 50%, 50%)" fill="none" opacity="0.86"></circle><circle r="8" cx="213" cy="292" stroke-width="2" stroke="hsl(235, 50%, 50%)" fill="none" opacity="0.60"></circle><circle r="11.5" cx="525" cy="644" stroke-width="2" stroke="hsl(259, 50%, 50%)" fill="none" opacity="0.98"></circle><circle r="4" cx="245" cy="212" stroke-width="2" stroke="hsl(241, 50%, 50%)" fill="none" opacity="0.11"></circle><circle r="9" cx="453" cy="107" stroke-width="2" stroke="hsl(245, 50%, 50%)" fill="none" opacity="0.31"></circle><circle r="9" cx="174" cy="469" stroke-width="2" stroke="hsl(229, 50%, 50%)" fill="none" opacity="1.00"></circle><circle r="9" cx="298" cy="552" stroke-width="2" stroke="hsl(261, 50%, 50%)" fill="none" opacity="0.73"></circle><circle r="6" cx="13" cy="189" stroke-width="2" stroke="hsl(208, 50%, 50%)" fill="none" opacity="0.98"></circle><circle r="7.5" cx="423" cy="594" stroke-width="2" stroke="hsl(294, 50%, 50%)" fill="none" opacity="0.13"></circle><circle r="11.5" cx="387" cy="140" stroke-width="2" stroke="hsl(279, 50%, 50%)" fill="none" opacity="0.17"></circle><circle r="7" cx="765" cy="701" stroke-width="2" stroke="hsl(230, 50%, 50%)" fill="none" opacity="0.33"></circle><circle r="11" cx="165" cy="604" stroke-width="2" stroke="hsl(229, 50%, 50%)" fill="none" opacity="0.76"></circle><circle r="10.5" cx="388" cy="53" stroke-width="2" stroke="hsl(248, 50%, 50%)" fill="none" opacity="0.91"></circle><circle r="9.5" cx="160" cy="745" stroke-width="2" stroke="hsl(229, 50%, 50%)" fill="none" opacity="0.71"></circle><circle r="4" cx="259" cy="6" stroke-width="2" stroke="hsl(270, 50%, 50%)" fill="none" opacity="0.69"></circle><circle r="10" cx="494" cy="455" stroke-width="2" stroke="hsl(271, 50%, 50%)" fill="none" opacity="0.78"></circle><circle r="4.5" cx="395" cy="592" stroke-width="2" stroke="hsl(294, 50%, 50%)" fill="none" opacity="0.38"></circle><circle r="10.5" cx="407" cy="167" stroke-width="2" stroke="hsl(287, 50%, 50%)" fill="none" opacity="0.89"></circle><circle r="7.5" cx="760" cy="741" stroke-width="2" stroke="hsl(230, 50%, 50%)" fill="none" opacity="0.16"></circle><circle r="11.5" cx="628" cy="690" stroke-width="2" stroke="hsl(228, 50%, 50%)" fill="none" opacity="0.50"></circle><circle r="6.5" cx="221" cy="178" stroke-width="2" stroke="hsl(239, 50%, 50%)" fill="none" opacity="0.38"></circle><circle r="10.5" cx="306" cy="131" stroke-width="2" stroke="hsl(265, 50%, 50%)" fill="none" opacity="0.31"></circle><circle r="7.5" cx="646" cy="141" stroke-width="2" stroke="hsl(245, 50%, 50%)" fill="none" opacity="0.62"></circle><circle r="6.5" cx="99" cy="587" stroke-width="2" stroke="hsl(227, 50%, 50%)" fill="none" opacity="0.42"></circle><circle r="5" cx="37" cy="194" stroke-width="2" stroke="hsl(212, 50%, 50%)" fill="none" opacity="0.74"></circle><circle r="8" cx="567" cy="121" stroke-width="2" stroke="hsl(230, 50%, 50%)" fill="none" opacity="0.23"></circle><circle r="6" cx="568" cy="365" stroke-width="2" stroke="hsl(239, 50%, 50%)" fill="none" opacity="0.31"></circle><circle r="5" cx="224" cy="208" stroke-width="2" stroke="hsl(235, 50%, 50%)" fill="none" opacity="0.68"></circle><circle r="11.5" cx="516" cy="168" stroke-width="2" stroke="hsl(252, 50%, 50%)" fill="none" opacity="0.70"></circle><circle r="9.5" cx="565" cy="645" stroke-width="2" stroke="hsl(239, 50%, 50%)" fill="none" opacity="0.28"></circle><circle r="8" cx="402" cy="646" stroke-width="2" stroke="hsl(294, 50%, 50%)" fill="none" opacity="0.36"></circle><circle r="12" cx="632" cy="330" stroke-width="2" stroke="hsl(228, 50%, 50%)" fill="none" opacity="0.96"></circle><circle r="6.5" cx="307" cy="668" stroke-width="2" stroke="hsl(267, 50%, 50%)" fill="none" opacity="0.38"></circle><circle r="9" cx="319" cy="647" stroke-width="2" stroke="hsl(273, 50%, 50%)" fill="none" opacity="0.87"></circle><circle r="10" cx="317" cy="228" stroke-width="2" stroke="hsl(273, 50%, 50%)" fill="none" opacity="0.42"></circle><circle r="10" cx="580" cy="308" stroke-width="2" stroke="hsl(236, 50%, 50%)" fill="none" opacity="0.93"></circle><circle r="5" cx="11" cy="141" stroke-width="2" stroke="hsl(216, 50%, 50%)" fill="none" opacity="0.55"></circle><circle r="10.5" cx="346" cy="127" stroke-width="2" stroke="hsl(272, 50%, 50%)" fill="none" opacity="0.33"></circle><circle r="8.5" cx="587" cy="420" stroke-width="2" stroke="hsl(236, 50%, 50%)" fill="none" opacity="0.87"></circle><circle r="10.5" cx="477" cy="199" stroke-width="2" stroke="hsl(276, 50%, 50%)" fill="none" opacity="0.70"></circle><circle r="9.5" cx="499" cy="732" stroke-width="2" stroke="hsl(271, 50%, 50%)" fill="none" opacity="0.35"></circle><circle r="11.5" cx="66" cy="655" stroke-width="2" stroke="hsl(223, 50%, 50%)" fill="none" opacity="0.40"></circle><circle r="11.5" cx="332" cy="92" stroke-width="2" stroke="hsl(263, 50%, 50%)" fill="none" opacity="0.94"></circle><circle r="8.5" cx="202" cy="25" stroke-width="2" stroke="hsl(272, 50%, 50%)" fill="none" opacity="0.49"></circle><circle r="10.5" cx="594" cy="669" stroke-width="2" stroke="hsl(233, 50%, 50%)" fill="none" opacity="0.27"></circle><circle r="9.5" cx="726" cy="680" stroke-width="2" stroke="hsl(230, 50%, 50%)" fill="none" opacity="0.73"></circle><circle r="12" cx="356" cy="643" stroke-width="2" stroke="hsl(287, 50%, 50%)" fill="none" opacity="0.74"></circle><circle r="14.5" cx="212" cy="635" stroke-width="2" stroke="hsl(232, 50%, 50%)" fill="none" opacity="0.72"></circle><circle r="5.5" cx="517" cy="52" stroke-width="2" stroke="hsl(207, 50%, 50%)" fill="none" opacity="0.24"></circle><circle r="5.5" cx="244" cy="469" stroke-width="2" stroke="hsl(241, 50%, 50%)" fill="none" opacity="0.99"></circle><circle r="7" cx="241" cy="236" stroke-width="2" stroke="hsl(241, 50%, 50%)" fill="none" opacity="0.17"></circle><circle r="12" cx="402" cy="204" stroke-width="2" stroke="hsl(294, 50%, 50%)" fill="none" opacity="0.61"></circle><circle r="5.5" cx="649" cy="175" stroke-width="2" stroke="hsl(237, 50%, 50%)" fill="none" opacity="0.55"></circle><circle r="9" cx="267" cy="594" stroke-width="2" stroke="hsl(250, 50%, 50%)" fill="none" opacity="0.68"></circle><circle r="11" cx="769" cy="126" stroke-width="2" stroke="hsl(265, 50%, 50%)" fill="none" opacity="0.98"></circle><circle r="5.5" cx="630" cy="167" stroke-width="2" stroke="hsl(236, 50%, 50%)" fill="none" opacity="0.58"></circle><circle r="13" cx="41" cy="720" stroke-width="2" stroke="hsl(216, 50%, 50%)" fill="none" opacity="0.50"></circle><circle r="4.5" cx="751" cy="760" stroke-width="2" stroke="hsl(230, 50%, 50%)" fill="none" opacity="0.31"></circle><circle r="8.5" cx="438" cy="345" stroke-width="2" stroke="hsl(289, 50%, 50%)" fill="none" opacity="0.97"></circle><circle r="7.5" cx="607" cy="162" stroke-width="2" stroke="hsl(237, 50%, 50%)" fill="none" opacity="0.92"></circle><circle r="12.5" cx="744" cy="27" stroke-width="2" stroke="hsl(263, 50%, 50%)" fill="none" opacity="0.79"></circle><circle r="7" cx="348" cy="12" stroke-width="2" stroke="hsl(259, 50%, 50%)" fill="none" opacity="0.18"></circle><circle r="8" cx="199" cy="159" stroke-width="2" stroke="hsl(246, 50%, 50%)" fill="none" opacity="0.56"></circle><circle r="7" cx="544" cy="584" stroke-width="2" stroke="hsl(248, 50%, 50%)" fill="none" opacity="0.61"></circle><circle r="8" cx="301" cy="525" stroke-width="2" stroke="hsl(267, 50%, 50%)" fill="none" opacity="0.22"></circle><circle r="7" cx="88" cy="95" stroke-width="2" stroke="hsl(259, 50%, 50%)" fill="none" opacity="0.18"></circle><circle r="7.5" cx="298" cy="35" stroke-width="2" stroke="hsl(262, 50%, 50%)" fill="none" opacity="0.13"></circle><circle r="12" cx="416" cy="539" stroke-width="2" stroke="hsl(294, 50%, 50%)" fill="none" opacity="0.17"></circle><circle r="9.5" cx="336" cy="786" stroke-width="2" stroke="hsl(278, 50%, 50%)" fill="none" opacity="0.41"></circle><circle r="11" cx="537" cy="742" stroke-width="2" stroke="hsl(254, 50%, 50%)" fill="none" opacity="0.26"></circle><circle r="6" cx="75" cy="362" stroke-width="2" stroke="hsl(223, 50%, 50%)" fill="none" opacity="0.97"></circle><circle r="12" cx="532" cy="543" stroke-width="2" stroke="hsl(254, 50%, 50%)" fill="none" opacity="0.95"></circle><circle r="10.5" cx="334" cy="549" stroke-width="2" stroke="hsl(278, 50%, 50%)" fill="none" opacity="0.75"></circle><circle r="6.5" cx="52" cy="242" stroke-width="2" stroke="hsl(220, 50%, 50%)" fill="none" opacity="0.58"></circle><circle r="11" cx="779" cy="658" stroke-width="2" stroke="hsl(230, 50%, 50%)" fill="none" opacity="0.77"></circle><circle r="11" cx="779" cy="499" stroke-width="2" stroke="hsl(230, 50%, 50%)" fill="none" opacity="0.41"></circle><circle r="7" cx="638" cy="776" stroke-width="2" stroke="hsl(228, 50%, 50%)" fill="none" opacity="0.71"></circle><circle r="11" cx="588" cy="249" stroke-width="2" stroke="hsl(233, 50%, 50%)" fill="none" opacity="0.19"></circle><circle r="7" cx="297" cy="687" stroke-width="2" stroke="hsl(261, 50%, 50%)" fill="none" opacity="0.78"></circle><circle r="9.5" cx="596" cy="99" stroke-width="2" stroke="hsl(230, 50%, 50%)" fill="none" opacity="0.82"></circle><circle r="10.5" cx="577" cy="737" stroke-width="2" stroke="hsl(236, 50%, 50%)" fill="none" opacity="0.97"></circle><circle r="8" cx="149" cy="411" stroke-width="2" stroke="hsl(229, 50%, 50%)" fill="none" opacity="0.79"></circle><circle r="8" cx="422" cy="66" stroke-width="2" stroke="hsl(243, 50%, 50%)" fill="none" opacity="0.98"></circle><circle r="6" cx="18" cy="373" stroke-width="2" stroke="hsl(208, 50%, 50%)" fill="none" opacity="0.53"></circle><circle r="7" cx="639" cy="223" stroke-width="2" stroke="hsl(228, 50%, 50%)" fill="none" opacity="0.39"></circle><circle r="11" cx="671" cy="313" stroke-width="2" stroke="hsl(228, 50%, 50%)" fill="none" opacity="0.36"></circle><circle r="7" cx="709" cy="243" stroke-width="2" stroke="hsl(229, 50%, 50%)" fill="none" opacity="0.29"></circle><circle r="4" cx="258" cy="219" stroke-width="2" stroke="hsl(245, 50%, 50%)" fill="none" opacity="0.59"></circle><circle r="10" cx="674" cy="476" stroke-width="2" stroke="hsl(228, 50%, 50%)" fill="none" opacity="0.71"></circle><circle r="7" cx="64" cy="101" stroke-width="2" stroke="hsl(249, 50%, 50%)" fill="none" opacity="0.23"></circle><circle r="7.5" cx="164" cy="154" stroke-width="2" stroke="hsl(245, 50%, 50%)" fill="none" opacity="0.39"></circle><circle r="7" cx="46" cy="363" stroke-width="2" stroke="hsl(216, 50%, 50%)" fill="none" opacity="0.55"></circle><circle r="11.5" cx="567" cy="186" stroke-width="2" stroke="hsl(239, 50%, 50%)" fill="none" opacity="0.41"></circle><circle r="12" cx="314" cy="613" stroke-width="2" stroke="hsl(273, 50%, 50%)" fill="none" opacity="0.87"></circle><circle r="10.5" cx="639" cy="383" stroke-width="2" stroke="hsl(228, 50%, 50%)" fill="none" opacity="0.84"></circle><circle r="8.5" cx="373" cy="365" stroke-width="2" stroke="hsl(291, 50%, 50%)" fill="none" opacity="0.16"></circle><circle r="9" cx="202" cy="386" stroke-width="2" stroke="hsl(232, 50%, 50%)" fill="none" opacity="0.44"></circle><circle r="6" cx="460" cy="156" stroke-width="2" stroke="hsl(270, 50%, 50%)" fill="none" opacity="0.96"></circle><circle r="10" cx="683" cy="363" stroke-width="2" stroke="hsl(229, 50%, 50%)" fill="none" opacity="0.59"></circle><circle r="13.5" cx="392" cy="454" stroke-width="2" stroke="hsl(294, 50%, 50%)" fill="none" opacity="0.77"></circle><circle r="4.5" cx="734" cy="753" stroke-width="2" stroke="hsl(230, 50%, 50%)" fill="none" opacity="0.61"></circle><circle r="8.5" cx="509" cy="579" stroke-width="2" stroke="hsl(265, 50%, 50%)" fill="none" opacity="0.19"></circle><circle r="7.5" cx="98" cy="478" stroke-width="2" stroke="hsl(227, 50%, 50%)" fill="none" opacity="0.37"></circle><circle r="12" cx="155" cy="649" stroke-width="2" stroke="hsl(229, 50%, 50%)" fill="none" opacity="0.76"></circle><circle r="5.5" cx="431" cy="614" stroke-width="2" stroke="hsl(292, 50%, 50%)" fill="none" opacity="0.26"></circle><circle r="9" cx="197" cy="579" stroke-width="2" stroke="hsl(231, 50%, 50%)" fill="none" opacity="0.77"></circle><circle r="6" cx="50" cy="138" stroke-width="2" stroke="hsl(232, 50%, 50%)" fill="none" opacity="0.96"></circle><circle r="7" cx="17" cy="308" stroke-width="2" stroke="hsl(208, 50%, 50%)" fill="none" opacity="0.29"></circle></svg>