<svg xmlns="http://www.w3.org/2000/svg" version="1.1" xmlns:xlink="http://www.w3.org/1999/xlink" xmlns:svgjs="http://svgjs.dev/svgjs" viewBox="0 0 800 800"><defs><linearGradient x1="50%" y1="0%" x2="50%" y2="100%" id="rrreflection-grad"><stop stop-color="hsl(206, 75%, 49%)" stop-opacity="1" offset="45%"></stop><stop stop-color="hsl(331, 90%, 56%)" stop-opacity="1" offset="100%"></stop></linearGradient><linearGradient x1="50%" y1="0%" x2="50%" y2="100%" id="rrreflection-grad-2"><stop stop-color="hsl(331, 90%, 56%)" stop-opacity="1" offset="0%"></stop><stop stop-color="hsl(206, 75%, 49%)" stop-opacity="1" offset="45%"></stop></linearGradient><linearGradient gradientTransform="rotate(270)" x1="50%" y1="0%" x2="50%" y2="100%" id="rrreflection-grad-3"><stop stop-color="hsl(206, 75%, 49%)" stop-opacity="1" offset="45%"></stop><stop stop-color="hsl(331, 90%, 56%)" stop-opacity="1" offset="100%"></stop></linearGradient><linearGradient gradientTransform="rotate(270)" x1="50%" y1="0%" x2="50%" y2="100%" id="rrreflection-grad-4"><stop stop-color="hsl(331, 90%, 56%)" stop-opacity="1" offset="0%"></stop><stop stop-color="hsl(206, 75%, 49%)" stop-opacity="1" offset="45%"></stop></linearGradient></defs><g stroke-width="2" stroke="url(#rrreflection-grad)" fill="none"><circle r="1884" cx="50%" cy="0"></circle><circle r="1805.5" cx="50%" cy="0"></circle><circle r="1727" cx="50%" cy="0"></circle><circle r="1648.5" cx="50%" cy="0"></circle><circle r="1570" cx="50%" cy="0"></circle><circle r="1491.5" cx="50%" cy="0"></circle><circle r="1413" cx="50%" cy="0"></circle><circle r="1334.5" cx="50%" cy="0"></circle><circle r="1256" cx="50%" cy="0"></circle><circle r="1177.5" cx="50%" cy="0"></circle><circle r="1099" cx="50%" cy="0"></circle><circle r="1020.5" cx="50%" cy="0"></circle><circle r="942" cx="50%" cy="0"></circle><circle r="863.5" cx="50%" cy="0"></circle><circle r="785" cx="50%" cy="0"></circle><circle r="706.5" cx="50%" cy="0"></circle><circle r="628" cx="50%" cy="0"></circle><circle r="549.5" cx="50%" cy="0"></circle><circle r="471" cx="50%" cy="0"></circle><circle r="392.5" cx="50%" cy="0"></circle><circle r="314" cx="50%" cy="0"></circle><circle r="235.5" cx="50%" cy="0"></circle><circle r="157" cx="50%" cy="0"></circle><circle r="78.5" cx="50%" cy="0"></circle></g><g stroke-width="2" stroke="url(#rrreflection-grad-2)" fill="none"><circle r="1884" cx="50%" cy="100%"></circle><circle r="1805.5" cx="50%" cy="100%"></circle><circle r="1727" cx="50%" cy="100%"></circle><circle r="1648.5" cx="50%" cy="100%"></circle><circle r="1570" cx="50%" cy="100%"></circle><circle r="1491.5" cx="50%" cy="100%"></circle><circle r="1413" cx="50%" cy="100%"></circle><circle r="1334.5" cx="50%" cy="100%"></circle><circle r="1256" cx="50%" cy="100%"></circle><circle r="1177.5" cx="50%" cy="100%"></circle><circle r="1099" cx="50%" cy="100%"></circle><circle r="1020.5" cx="50%" cy="100%"></circle><circle r="942" cx="50%" cy="100%"></circle><circle r="863.5" cx="50%" cy="100%"></circle><circle r="785" cx="50%" cy="100%"></circle><circle r="706.5" cx="50%" cy="100%"></circle><circle r="628" cx="50%" cy="100%"></circle><circle r="549.5" cx="50%" cy="100%"></circle><circle r="471" cx="50%" cy="100%"></circle><circle r="392.5" cx="50%" cy="100%"></circle><circle r="314" cx="50%" cy="100%"></circle><circle r="235.5" cx="50%" cy="100%"></circle><circle r="157" cx="50%" cy="100%"></circle><circle r="78.5" cx="50%" cy="100%"></circle></g><g stroke-width="2" stroke="url(#rrreflection-grad-3)" fill="none"><circle r="1884" cx="0" cy="50%"></circle><circle r="1805.5" cx="0" cy="50%"></circle><circle r="1727" cx="0" cy="50%"></circle><circle r="1648.5" cx="0" cy="50%"></circle><circle r="1570" cx="0" cy="50%"></circle><circle r="1491.5" cx="0" cy="50%"></circle><circle r="1413" cx="0" cy="50%"></circle><circle r="1334.5" cx="0" cy="50%"></circle><circle r="1256" cx="0" cy="50%"></circle><circle r="1177.5" cx="0" cy="50%"></circle><circle r="1099" cx="0" cy="50%"></circle><circle r="1020.5" cx="0" cy="50%"></circle><circle r="942" cx="0" cy="50%"></circle><circle r="863.5" cx="0" cy="50%"></circle><circle r="785" cx="0" cy="50%"></circle><circle r="706.5" cx="0" cy="50%"></circle><circle r="628" cx="0" cy="50%"></circle><circle r="549.5" cx="0" cy="50%"></circle><circle r="471" cx="0" cy="50%"></circle><circle r="392.5" cx="0" cy="50%"></circle><circle r="314" cx="0" cy="50%"></circle><circle r="235.5" cx="0" cy="50%"></circle><circle r="157" cx="0" cy="50%"></circle><circle r="78.5" cx="0" cy="50%"></circle></g><g stroke-width="2" stroke="url(#rrreflection-grad-4)" fill="none"><circle r="1884" cx="100%" cy="50%"></circle><circle r="1805.5" cx="100%" cy="50%"></circle><circle r="1727" cx="100%" cy="50%"></circle><circle r="1648.5" cx="100%" cy="50%"></circle><circle r="1570" cx="100%" cy="50%"></circle><circle r="1491.5" cx="100%" cy="50%"></circle><circle r="1413" cx="100%" cy="50%"></circle><circle r="1334.5" cx="100%" cy="50%"></circle><circle r="1256" cx="100%" cy="50%"></circle><circle r="1177.5" cx="100%" cy="50%"></circle><circle r="1099" cx="100%" cy="50%"></circle><circle r="1020.5" cx="100%" cy="50%"></circle><circle r="942" cx="100%" cy="50%"></circle><circle r="863.5" cx="100%" cy="50%"></circle><circle r="785" cx="100%" cy="50%"></circle><circle r="706.5" cx="100%" cy="50%"></circle><circle r="628" cx="100%" cy="50%"></circle><circle r="549.5" cx="100%" cy="50%"></circle><circle r="471" cx="100%" cy="50%"></circle><circle r="392.5" cx="100%" cy="50%"></circle><circle r="314" cx="100%" cy="50%"></circle><circle r="235.5" cx="100%" cy="50%"></circle><circle r="157" cx="100%" cy="50%"></circle><circle r="78.5" cx="100%" cy="50%"></circle></g></svg>