<svg xmlns="http://www.w3.org/2000/svg" version="1.1" xmlns:xlink="http://www.w3.org/1999/xlink" xmlns:svgjs="http://svgjs.dev/svgjs" viewBox="0 0 800 800"><defs><linearGradient x1="50%" y1="0%" x2="50%" y2="100%" id="ssscribble-grad"><stop stop-color="hsl(206, 75%, 49%)" stop-opacity="1" offset="0%"></stop><stop stop-color="hsl(331, 90%, 56%)" stop-opacity="1" offset="100%"></stop></linearGradient></defs><g fill="none" stroke-width="1.5" stroke="url(#ssscribble-grad)" stroke-linecap="round"><path d="M1047.98 621.35C1101.24 654.21 1077.21 688.71 988.61 722.44 863.52 753.74 738.2 779.61 644.38 795.25 599.69 802.72 607.16 794.21 653.53 767.22 728.29 732.34 803.72 683.76 862.27 629.48 902.47 588.42 911.31 563.57 892.8 568.34 853.29 611.57 798.15 691.58 737.18 800.2 669.2 917.03 604.97 1020.73 549.4 1084.73 493.14 1093.58 447.62 1040.86 414.76 937.46 381.9 816.65 363.25 711.34 357.54 647.69 351.14 639.26 355.59 680.81 366.62 754.73 370.64 846.58 371.67 926.95 360.53 978.96 328.4 999.67 272.38 981.52 189.11 932.3 87.49 858.95 -26.89 772.97 -135.86 685.82 -216.46 597.13 -253.4 518.05 -232.79 451.06 -163.05 389.28 -56.44 337.96 55.96 294.94 131.87 254.09 149.24 217.73 95.98 184.87 -14.82 152.01 -139.76 124.2 -237.37 103.08 -283.93 84.12 -262.3 75.66 -183.55 80.49 -68.13 90.53 55.03 115.49 160.21 153.53 251.39 209.44 218.14 254.89 155.3 189.56 111.66 103.34 82.61 -6.49 70.37 -122.43 64.78 -220.43 73.82 -280.7 93.79 -284.96 116.46 -234.01 145.29 -135.37 178.15 -14.57 211.01 88.84 246.34 148.24 285.65 152.08 327.64 100.77 378.38 15.78 440.92 -76.96 510.1 -161.49 593.26 -212.04 687.54 -221.06 779.84 -191.62 869.41 -127.81 942.1 -43.69 984.78 53.64 989.44 149.4 949.63 234.94 878.68 312.57 784.98 375.2 693.64 424.68 638.97 465.99 636.02 499.9 695.26 530.58 805.54 558.81 937.13 588.48 1047.95 621.34Q1047.98 621.35 1047.98 621.35" opacity="0.61"></path><path d="M1013.98 614.46C1065.86 644.97 1050.89 670.72 977.73 690.3 867.21 708.01 747.44 716.26 645.97 712.55 579.78 704.13 557.62 681.92 574.2 646.98 624.19 612.04 687.53 572.42 748.14 536.79 804.26 519.89 839.31 523.62 851.57 556.29 847.49 619.82 824.78 710.53 790.31 817.93 747.16 923.36 700.86 1009.83 656.98 1056.98 611.25 1055.22 571.87 1000.73 541.36 903.46 510.84 791.12 490.64 690.18 478.83 622.61 465.16 600.99 455.95 623.97 446.22 679.95 427.81 759.48 400.27 838.54 357.32 901.23 298.03 944.16 219.18 955.41 123.07 937.41 22.46 895.45 -77.05 834.96 -158.81 765.58 -207.16 688.21 -212.36 613.06 -168.55 545.08 -89.44 478 12.95 420.18 111.7 372.12 173.08 325.14 181.87 286.28 129.98 255.76 28.28 225.25 -87.82 204.52 -184.56 193.95 -242.17 184.47 -242.19 186.78 -189.1 200.98 -96.22 216.08 15.73 240.98 124.31 271.32 217.12 293.67 280.84 310.36 314.44 312.33 319.41 290.34 304.56 242.92 280.68 168.23 246.57 73.77 217.39 -32.65 198.59 -134.54 180.96 -212.9 176.42 -253.26 184.69 -243.43 194.36 -187.65 214.74 -92.9 245.25 19.42 275.77 116.71 314.96 177.39 362.84 190.95 412.11 155.58 472.15 86.49 542.66 3.42 614.34 -81.61 693.77 -144.95 774.9 -176.71 845.82 -177.62 904.48 -145.18 939.52 -88.29 945.92 -12.68 918.38 70.75 857.35 152.71 780.54 234.68 695.95 307.14 625.43 368.44 594.7 425.03 612.07 472.3 681.44 512.14 789.95 550.1 912.24 583.93 1013.95 614.45Q1013.98 614.46 1013.98 614.46" opacity="0.69"></path><path d="M979.98 542.65C1030.09 570.81 1023.12 589.9 964.68 599.64 869.83 608.45 759.49 606.48 656.51 593.61 575.85 579.73 529.13 556.34 516.82 526.77 537.38 503.03 578.52 481.9 627.56 471.06 683.16 479.97 728.94 509.85 759.62 564.49 781.33 640.9 786.06 734.8 776.89 835.15 760.34 926.16 735.54 994.91 706.89 1026.41 676.13 1015.61 645.59 960.38 617.42 869.46 589.26 765.67 564.8 669.87 542.44 600.17 517.96 567.7 491.52 573.68 459.27 611.16 419.62 674.67 368.51 745.72 303.39 810.55 229.3 866.33 143.08 899.32 50.57 908.03 -35.38 896.8 -109.92 865.35 -159.8 820.48 -176.82 764.56 -155.36 704.51 -95.35 646.06 -13.01 585.11 81.28 530.06 165.26 483.31 212.83 436.54 214.1 398.48 163.98 370.31 71.26 342.14 -35.56 325.2 -129.5 318.84 -194.79 312.47 -213.15 316.28 -184.53 328.42 -116.9 338.06 -23.38 351.72 78.06 364.24 177.08 365.7 259.14 356.72 318.73 331.04 356.02 285.41 372.3 219.03 374.33 133.93 362.55 39.78 347.57 -56.53 335.75 -140.68 320.73 -198.82 314.38 -220.84 318.94 -199.25 323.5 -140.43 339.51 -50.36 367.67 53.42 395.83 144.35 434.82 205.3 483.38 226.99 531.93 206.36 589.53 153.65 653.36 83.29 713.99 3.58 775.37 -65.05 830.55 -112.14 871.94 -137.45 896.1 -133.94 895.74 -105.94 873.07 -58.17 824.41 3.38 754.72 70.53 682.6 143.51 614.33 213.29 567.35 275.97 559.36 337.66 593.74 390.87 669.89 435.18 774.69 478.56 887.22 514.47 979.95 542.64Q979.98 542.65 979.98 542.65" opacity="0.63"></path><path d="M945.98 427.66C993.93 453.47 993.85 469 949.17 474.82 870.49 480.65 772.63 477.09 673.7 465.67 585.95 456.18 521.59 442.17 484.72 427.82 476 422.23 489.96 423.98 518.03 438.65 559.36 470.58 600.56 520.75 635.02 589.44 668 670.85 688.76 761 696.99 849.61 697.63 949.91 652.43 947.28 615.77 835.46 589.95 740.28 561.22 650.35 528.88 580.25 494.93 539.41 454.49 530.53 405.83 550.09 352.86 595.52 289.58 653.46 216.81 712.9 142.55 772.04 64.28 817.34 -10.88 845 -72.78 858.86 -117.36 854.29 -135.53 835.02 -125.54 804.83 -84.34 766.32 -15.5 724.51 64.48 678.41 147.65 633.9 216.37 594.17 251.08 553.65 245.93 519.66 197.98 493.85 114.1 468.02 16.91 451.59 -72.49 443.41 -142.17 434.45 -175.08 431.99 -168.37 433.35 -126.42 430.41 -55.92 426.41 29.93 416.81 123.28 396.28 210.98 363.79 285.42 316.1 346.28 254.6 389.51 178.69 417.75 92.66 432.98 6.34 439.98 -74.75 444.08 -139.11 442.77 -177.6 444.57 -183.42 452.78 -152.56 459.97 -92.43 475.81 -7.74 501.63 87.42 527.45 171.76 562.02 231.99 603.52 260.17 644 252.72 689.17 216.12 735.22 160.4 775.87 90.71 811.4 23.71 835.97 -30.81 847.53 -72.61 841.37 -92.17 814.36 -90.26 773.76 -71.09 716.68 -35.77 650.21 9.6 591.23 63.74 543.88 120.27 520.85 174.51 533.06 230.67 580.65 281.2 660.28 324.06 759.65 366.93 862.07 401.83 945.95 427.65Q945.98 427.66 945.98 427.66" opacity="0.67"></path><path d="M911.98 304.29C957.39 327.76 963.06 342.72 930.93 350.16 868.29 358.25 785.02 360.24 694.84 358.36 607.06 359.93 532.96 361.53 478.34 366.91 444.78 381.21 431.9 404.8 435.07 440.87 453.63 489.57 478.65 551.94 503.99 626.01 533.42 704.95 556.57 785.59 570.91 859.15 586.22 934.07 568.02 905.88 537 801.46 513.52 714.94 482.8 631.53 445.16 562.68 406.78 516.02 360.34 494.89 306.23 498.13 251.21 525.07 189.4 566.73 123.8 614.97 62.28 669.05 3.56 717.07 -45.75 754.28 -79.69 784.29 -94.64 799.89 -85.52 802.16 -55.34 795.94 -2.28 779.67 68.28 756.81 141.25 729.51 211.17 699.75 264.74 670.49 287.82 640.12 277.39 612.44 231.98 588.97 156.79 565.5 69.47 547.34 -13.9 533.45 -84.81 518.44 -128.18 505.49 -139.77 492.13 -121.81 474.3 -76.07 451.93 -11.35 421.97 66.75 383.54 148.1 334.24 224.9 273.46 296.8 205.49 357.01 129.64 404.88 51.12 443.51 -21.55 472.35 -84.27 494.59 -128.42 511.48 -148.87 526.52 -141.11 542.61 -103.52 557.31 -43.73 575.79 34.91 599.27 121.42 622.74 198.96 650.09 257.5 679.64 290.49 707.82 294.37 735.49 272.88 759.27 232.59 777.72 176.24 787.53 116.65 785.09 62.15 773.39 12.52 746.88 -22.02 705.75 -39.95 659.72 -45.27 606.2 -35.16 552.53 -13.28 512.24 17.51 487.55 54.56 486.79 93.67 515.57 136.23 572.29 176.94 652.26 213.11 744.69 249.94 836.76 280.81 911.95 304.28Q911.98 304.29 911.98 304.29" opacity="0.95"></path><path d="M877.98 209.89C920.46 231.02 930.72 247.41 909.73 259.93 862.45 273.34 794.9 284.68 717 295.93 635.39 310.77 559.42 328.89 495.2 352.83 444.28 383.84 409.51 423.78 389.38 473.69 383.05 530.92 386.21 596.72 394.33 667.97 409.24 738.21 423.25 805.13 433.08 861.84 446.88 912.49 436.35 863.8 409.25 767.46 388.12 689.64 358.82 613.32 322.39 547.25 286.05 497.31 242.94 466.88 194.86 456.26 148.43 465.81 99.63 490.07 52.16 523.49 11.48 566.14 -22 608.54 -43.36 646.1 -50.91 682.13 -41.19 708.63 -12.27 724.79 29.94 735.97 86.97 737.55 153.1 731.19 215.51 721.42 271.03 706.39 310.16 688.07 323 668.74 308.46 648.02 265.98 626.89 199.31 605.77 121.99 585.24 45.9 564.74 -23.37 543.22 -73.07 519.82 -98.58 492.99 -101.15 462.74 -79.2 426.37 -37.87 382.64 18.89 333.91 84.6 277.08 152.52 213.37 222.33 148.13 286.91 80.67 343.62 16.03 395.92 -39.38 439.73 -82.59 475.91 -107.63 508.36 -112.5 535.82 -94.11 559.91 -52.32 582.82 5.58 604.54 77.61 625.67 155.42 646.79 225.95 666.32 281.89 683.25 318 699 331.1 709.97 323.08 714.13 297.94 714.57 256.72 705.55 208.74 685.81 160.49 661.67 111.24 627.41 70.48 585.29 40.94 545.05 18.72 504.39 9.11 469.61 10.65 450.28 19.28 447.27 35.94 465.32 57.71 506.3 83.07 568.01 110.16 645.44 136.58 729.68 163.9 811.28 188.76 877.95 209.88Q877.98 209.89 877.98 209.89" opacity="0.68"></path><path d="M843.98 173.04C883.15 191.82 896.83 210.12 885.38 228.36 852.23 247.41 800.57 267.91 737.2 291.09 666.57 317 595.72 347.78 530.14 384.55 470.9 425.61 422.28 473.73 384.89 528.38 357.48 585.62 339.54 646.79 328.54 708.54 324.32 765.65 322.91 816.51 321.48 856.09 322.83 881.14 321.18 888.53 314.73 875.73 308.87 845.42 296.97 796.78 278.19 733.46 259.41 664.36 234.64 595.63 205.09 533.74 176.13 482.96 143.62 446.36 109.73 424.97 78.62 419.55 49.1 427.22 24.38 444.58 6.44 472.07 -2.57 502.95 0.22 533.37 13 566.18 39.35 594.05 79.04 615.18 125.07 634.7 179.09 646.55 235.95 650.86 306.04 651.35 347.89 622.25 299.98 596.13 241.64 577.35 174.31 555.36 106.51 530.18 41.39 504.34 -10.65 474.13 -45.35 439.12 -63.73 402.27 -62.24 359.5 -43.37 311.04 -10.04 260.97 34.67 206.14 85.79 148.72 142.77 93.69 199.93 40.54 253.9 -6.5 307.69 -43.41 355.96 -67.93 397.77 -76.27 438.01 -68.65 472.39 -42.74 501.09 0.78 529.14 55.41 552.63 120.32 571.4 189.42 590.19 252.75 603.37 305.21 610.74 342.77 617.46 362.82 617.23 366.13 609.54 354.84 600.27 329.03 582.93 295 558.08 257.45 533.05 215.25 502.85 176.34 470.48 143.71 432.74 103.09 416.07 72.63 455.88 79.33 504.34 88.69 567.07 102.35 639.43 118.72 714.48 135.89 785.61 154.26 843.95 173.03Q843.98 173.04 843.98 173.04" opacity="0.38"></path><path d="M809.98 204.89C863.24 237.75 837.23 282.87 752.6 341.66 634.24 406.32 514.4 491.8 418.05 592.88 343.65 690.92 296.72 782.49 266.09 840.72 245.9 851.57 223.53 802.86 190.67 699.46 157.81 578.64 117.56 472.05 80.81 404.27 54.49 382.49 50.13 397.6 81.47 429.67 134.74 478.83 219.73 516.98 314 533.11 374.54 547.66 387.24 538.86 333.98 506 223.16 473.14 104.57 419.34 18.7 347.84 -26.17 274.77 -12.73 185.34 41.17 93.1 122.92 17.96 211.73 -32.01 288.02 -34.33 365.21 9.36 423.01 102.62 455.87 223.42 463.18 348.74 377.62 181.18 457.28 156.37 567.23 154.53 699.14 172.02 809.95 204.88Q809.98 204.89 809.98 204.89" opacity="0.52"></path><path d="M775.98 295.8C826.09 323.97 817 370.1 760.58 431.18 671.89 493.64 570.8 570.9 478.48 653.61 393.23 726.38 327.37 786.26 279.77 814.96 238.94 807.81 206.14 756.37 177.98 665.46 149.81 561.67 128.94 465.02 120.96 393.64 119.74 352.96 141.65 341.03 189.98 347.22 245.39 371.31 316.6 394.27 384.65 404.91 420.42 417.69 418.09 411.94 367.98 383.77 275.26 355.61 173.97 307.69 91.77 246.1 32.05 186.65 14.12 119.73 31.14 58.73 72.34 15.62 128.82 -2.32 184.17 17.69 244.14 68.42 292.19 153.64 320.36 257.42 348.53 348.35 354.16 411.21 343 439.02 336.46 430.97 323.93 400.96 319.64 365.11 339.54 319.32 387.33 286.01 467.69 272.37 570.52 260.1 683.23 267.63 775.95 295.79Q775.98 295.8 775.98 295.8" opacity="0.64"></path><path d="M741.98 418.25C787.38 441.72 790.93 481.66 758.97 533.15 700.62 583.31 626.09 641.23 550.84 697.57 473.3 742.69 406.2 773.36 354.32 778.56 305.07 759.32 268.1 708.98 244.63 631.46 221.16 544.94 213.4 460.98 221.98 392.13 233.18 341.39 263.65 310.4 310.43 294.99 379.73 295.34 453.92 294.16 401.98 266.46 326.79 242.99 244.1 206.73 171.52 163.6 90.11 104.01 79.9 42.27 121.91 78.84 157.19 130.48 189.84 204.91 213.31 291.42 236.79 368.96 248.87 428.82 254.26 465.27 264.64 477.28 277.83 471.51 302.28 457.15 343.07 431.57 404.37 410.29 484.78 400.8 574.56 389.99 666.76 394.77 741.95 418.24Q741.98 418.25 741.98 418.25" opacity="0.65"></path><path d="M707.98 535.17C747.15 553.95 758.83 582.95 746.11 617.83 714.88 650.62 668.82 685.03 617.64 714.33 560.61 734.77 506.96 742.45 462.96 731.76 418.82 706.46 385.6 660.78 366.82 597.46 348.04 528.35 345.48 459.29 357.08 398.32 368.54 346.33 392.88 306.1 425.3 277.29 464.95 250.31 484.8 214.84 435.98 189.57 377.64 170.79 313.98 148 255.25 125.01 198.15 104.84 156.34 89.63 132.14 84.95 116.21 89.15 114.99 109.47 124.26 147.69 136.88 194.9 154.22 256.35 173 325.46 191.77 388.78 210.21 442.07 230.13 481.13 253.41 505.59 283.93 517.83 324.48 521.99 373.28 517.31 435 512.19 505.86 511.95 578.34 509.61 649.61 516.39 707.95 535.16Q707.98 535.17 707.98 535.17" opacity="0.21"></path><path d="M673.98 611.18C724.09 639.34 710.68 676.65 662.39 697.64 593.62 698.14 529.04 654.37 500.87 563.46 472.7 459.66 486.29 361.35 518.14 293.15 529.51 241.21 520.09 204.54 469.98 176.38 377.25 148.21 287.04 133.88 233.58 148.9 190.28 180.18 185.64 255.66 213.81 359.46 241.98 450.37 297.62 516.97 377.84 553.39 468.2 569.31 581.25 583.01 673.98 611.18Q673.98 611.18 673.98 611.18" opacity="0.42"></path><path d="M639.98 623.25C694.81 660.8 636.41 644.36 598.86 529.46 561.3 391.96 558.81 268.43 503.98 230.88 374.63 193.32 283.61 255.96 321.17 393.46 358.72 508.36 510.63 585.69 639.98 623.25Q639.98 623.25 639.98 623.25" opacity="0.98"></path></g></svg>